<svg aria-hidden="true" style="position: absolute; width: 0; height: 0; overflow: hidden;" version="1.1" xmlns="http://www.w3.org/2000/svg" xmlns:xlink="http://www.w3.org/1999/xlink">
<defs>
<symbol id="icon-android" viewBox="0 0 32 32">
<path d="M4.442 10.365c-0.551 0-1.019 0.192-1.404 0.577s-0.577 0.846-0.577 1.385v8.269c0 0.552 0.192 1.019 0.577 1.404s0.852 0.577 1.404 0.577c0.551 0 1.016-0.192 1.394-0.577s0.567-0.852 0.567-1.404v-8.269c0-0.539-0.192-1-0.577-1.385s-0.846-0.577-1.385-0.577z"></path>
<path d="M20.366 2.942l1.365-2.519c0.090-0.167 0.058-0.295-0.096-0.385-0.167-0.078-0.295-0.038-0.384 0.115l-1.384 2.539c-1.218-0.539-2.507-0.808-3.866-0.808s-2.648 0.27-3.866 0.808l-1.385-2.539c-0.090-0.153-0.218-0.192-0.384-0.115-0.154 0.090-0.186 0.218-0.096 0.385l1.366 2.519c-1.385 0.706-2.487 1.689-3.308 2.952s-1.231 2.644-1.231 4.144h17.788c0-1.5-0.41-2.881-1.231-4.144s-1.917-2.246-3.288-2.952zM12.471 6.606c-0.148 0.148-0.324 0.222-0.529 0.222s-0.378-0.074-0.519-0.222c-0.141-0.147-0.211-0.323-0.211-0.529s0.070-0.381 0.211-0.529c0.141-0.147 0.314-0.221 0.519-0.221s0.381 0.074 0.529 0.221c0.147 0.148 0.221 0.324 0.221 0.529s-0.074 0.381-0.221 0.529zM20.577 6.606c-0.141 0.148-0.314 0.222-0.519 0.222s-0.382-0.074-0.529-0.222c-0.148-0.147-0.221-0.323-0.221-0.529s0.074-0.381 0.221-0.529c0.147-0.147 0.324-0.221 0.529-0.221s0.378 0.074 0.519 0.221c0.141 0.148 0.212 0.324 0.212 0.529s-0.070 0.381-0.212 0.529z"></path>
<path d="M7.174 23.538c0 0.59 0.205 1.090 0.615 1.5s0.91 0.615 1.5 0.615h1.423l0.020 4.366c0 0.551 0.192 1.019 0.577 1.404s0.846 0.577 1.385 0.577c0.551 0 1.019-0.192 1.404-0.577s0.577-0.853 0.577-1.404v-4.366h2.654v4.366c0 0.551 0.192 1.019 0.577 1.404s0.852 0.577 1.404 0.577c0.551 0 1.019-0.192 1.404-0.577s0.577-0.853 0.577-1.404v-4.366h1.442c0.577 0 1.070-0.205 1.481-0.615s0.615-0.91 0.615-1.5v-12.808h-17.653v12.808z"></path>
<path d="M27.558 10.365c-0.539 0-1 0.19-1.385 0.567s-0.577 0.844-0.577 1.394v8.269c0 0.552 0.192 1.019 0.577 1.404s0.846 0.577 1.385 0.577c0.551 0 1.019-0.192 1.404-0.577s0.577-0.852 0.577-1.404v-8.269c0-0.551-0.192-1.016-0.577-1.394s-0.853-0.567-1.404-0.567z"></path>
</symbol>
<symbol id="icon-apple" viewBox="0 0 32 32">
<path d="M24.768 17.938c-0.88-4.43 3.325-7.028 3.325-7.028s-1.638-2.37-4.392-2.98c-2.752-0.611-4.129 0.152-5.504 0.725-1.376 0.574-2.063 0.574-2.063 0.574-1.986 0-3.437-2.102-7.22-1.145-2.606 0.658-5.35 3.666-5.846 7.258-0.496 3.592 0.574 8.176 2.637 11.729 2.063 3.555 4.164 4.892 5.655 4.93 1.491 0.037 2.98-1.068 4.775-1.337 1.796-0.266 2.902 0.651 4.663 1.147 1.755 0.494 2.37 0.036 4.392-1.684 2.027-1.719 3.861-6.651 3.861-6.651s-3.403-1.104-4.283-5.537z"></path>
<path d="M20.871 5.063c1.95-1.987 1.29-5.063 1.29-5.063s-2.738 0.481-4.573 2.389c-1.833 1.91-1.53 4.927-1.53 4.927s2.863-0.268 4.813-2.253z"></path>
</symbol>
<symbol id="icon-facebook" viewBox="0 0 32 32">
<path d="M15.949 0.485c2.885 0.033 5.491 0.742 7.818 2.127 2.3 1.357 4.212 3.282 5.556 5.59 1.377 2.341 2.081 4.963 2.114 7.865-0.082 3.971-1.334 7.362-3.757 10.175s-5.527 4.552-8.739 5.219v-11.133h3.037l0.687-4.375h-4.599v-2.866c-0.026-0.594 0.162-1.178 0.53-1.645 0.368-0.469 1.015-0.715 1.943-0.739h2.777v-3.832c-0.040-0.013-0.418-0.064-1.134-0.152-0.812-0.095-1.63-0.146-2.447-0.152-1.851 0.009-3.316 0.531-4.393 1.567s-1.627 2.534-1.651 4.495v3.325h-3.5v4.375h3.5v11.133c-3.945-0.667-7.048-2.407-9.471-5.219s-3.675-6.204-3.757-10.175c0.033-2.902 0.737-5.524 2.114-7.865 1.343-2.308 3.256-4.232 5.556-5.59 2.327-1.385 4.933-2.094 7.818-2.127z"></path>
</symbol>
<symbol id="icon-heart" viewBox="0 0 32 32">
<path stroke-linejoin="round" stroke-linecap="round" stroke-miterlimit="4" stroke-width="2.6667" d="M27.787 6.146c-0.681-0.681-1.49-1.222-2.379-1.591s-1.844-0.559-2.807-0.559-1.917 0.19-2.807 0.559c-0.89 0.369-1.699 0.909-2.38 1.591l-1.413 1.413-1.413-1.413c-1.376-1.376-3.241-2.148-5.187-2.148s-3.811 0.773-5.187 2.148c-1.376 1.376-2.148 3.241-2.148 5.187s0.773 3.811 2.148 5.187l11.787 11.787 11.787-11.787c0.681-0.681 1.222-1.49 1.591-2.38s0.559-1.844 0.559-2.807-0.19-1.917-0.559-2.807c-0.369-0.89-0.909-1.699-1.591-2.38v0z"></path>
</symbol>
<symbol id="icon-instagram" viewBox="0 0 32 32">
<path d="M16 12.501c2.164 0 3.918 1.727 3.918 3.857s-1.754 3.857-3.918 3.857-3.918-1.727-3.918-3.857c0-2.13 1.754-3.857 3.918-3.857zM16 10.958c-3.029 0-5.485 2.417-5.485 5.4s2.456 5.399 5.485 5.399 5.485-2.418 5.485-5.399c0-2.982-2.456-5.399-5.485-5.399zM21.654 9.66c-0.304 0.005-0.6 0.099-0.851 0.272s-0.445 0.415-0.558 0.697c-0.113 0.282-0.14 0.592-0.078 0.889s0.211 0.57 0.428 0.784c0.217 0.213 0.492 0.358 0.79 0.415s0.608 0.026 0.888-0.092c0.28-0.117 0.52-0.315 0.689-0.569s0.258-0.551 0.258-0.855c-0.003-0.412-0.17-0.807-0.464-1.096s-0.691-0.45-1.103-0.447zM12.172 7.981h7.657c2.491 0 4.51 1.988 4.51 4.44v7.873c0 2.452-2.019 4.44-4.51 4.44h-7.657c-2.491 0-4.51-1.988-4.51-4.44v-7.873c0-2.452 2.019-4.44 4.51-4.44zM11.449 6.446c-2.961 0-5.361 2.363-5.361 5.278v9.268c0 2.915 2.4 5.278 5.361 5.278h9.102c2.961 0 5.361-2.363 5.361-5.278v-9.268c0-2.915-2.4-5.278-5.361-5.278h-9.102zM16 0.87c8.553 0 15.488 6.934 15.488 15.488s-6.934 15.487-15.488 15.487c-8.554 0-15.488-6.934-15.488-15.487s6.934-15.488 15.488-15.488z"></path>
</symbol>
<symbol id="icon-next" viewBox="0 0 32 32">
<path stroke-linejoin="round" stroke-linecap="round" stroke-miterlimit="4" stroke-width="2.6667" d="M12 8l8 8-8 8"></path>
</symbol>
<symbol id="icon-prev" viewBox="0 0 32 32">
<path stroke-linejoin="round" stroke-linecap="round" stroke-miterlimit="4" stroke-width="2.6667" d="M20 24l-8-8 8-8"></path>
</symbol>
<symbol id="icon-snapchat" viewBox="0 0 32 32">
<path d="M15.908 0.504c-8.545 0-15.488 6.942-15.488 15.488s6.942 15.487 15.488 15.487c8.545 0 15.488-6.942 15.488-15.487s-6.942-15.488-15.488-15.488zM25.18 20.998c-0.106 0.257-0.605 0.62-2.359 0.892-0.151 0.030-0.197 0.212-0.287 0.605-0.028 0.143-0.064 0.284-0.106 0.423-0.045 0.136-0.121 0.197-0.257 0.197h-0.015c-0.133-0.003-0.265-0.023-0.393-0.061-0.349-0.064-0.704-0.099-1.059-0.106-0.253-0.002-0.506 0.018-0.756 0.060-0.529 0.091-0.968 0.408-1.452 0.741-0.681 0.484-1.392 0.983-2.496 0.983h-0.242c-1.104 0-1.815-0.499-2.496-0.983-0.469-0.333-0.923-0.65-1.452-0.741-0.25-0.042-0.503-0.062-0.756-0.060-0.356 0.006-0.71 0.047-1.059 0.121-0.129 0.032-0.261 0.052-0.393 0.060-0.062 0.007-0.124-0.010-0.174-0.046s-0.085-0.090-0.098-0.151c-0.045-0.151-0.076-0.302-0.106-0.438-0.076-0.363-0.136-0.575-0.287-0.605-1.755-0.273-2.254-0.635-2.359-0.892-0.017-0.038-0.027-0.079-0.030-0.121-0.001-0.047 0.015-0.094 0.046-0.13s0.073-0.060 0.12-0.067c2.692-0.454 3.902-3.207 3.947-3.327h0.015c0.166-0.333 0.197-0.635 0.091-0.862-0.181-0.439-0.786-0.635-1.18-0.756-0.092-0.026-0.183-0.056-0.272-0.091-0.802-0.317-0.862-0.635-0.832-0.802 0.060-0.287 0.423-0.484 0.741-0.484 0.073-0.001 0.146 0.015 0.212 0.046 0.363 0.166 0.681 0.257 0.953 0.257 0.393 0 0.56-0.166 0.575-0.181 0-0.182-0.015-0.378-0.030-0.575-0.076-1.27-0.181-2.858 0.227-3.766 1.21-2.707 3.766-2.919 4.522-2.919h0.378c0.756 0 3.327 0.212 4.537 2.919 0.408 0.908 0.302 2.495 0.227 3.766v0.061c-0.015 0.166-0.030 0.348-0.030 0.514 0.015 0.015 0.166 0.166 0.514 0.181 0.272-0.015 0.575-0.105 0.907-0.257 0.091-0.039 0.189-0.060 0.287-0.061 0.11 0.002 0.218 0.028 0.318 0.076h0.015c0.257 0.091 0.439 0.288 0.439 0.484 0.015 0.182-0.136 0.469-0.832 0.741-0.076 0.030-0.166 0.061-0.257 0.091-0.408 0.121-1.013 0.318-1.195 0.756-0.106 0.227-0.076 0.529 0.091 0.862h0.015c0.045 0.121 1.255 2.874 3.948 3.327 0.047 0.007 0.090 0.030 0.12 0.067s0.047 0.082 0.046 0.13c-0.003 0.042-0.013 0.083-0.030 0.121z"></path>
</symbol>
<symbol id="icon-tiktok" viewBox="0 0 32 32">
<path d="M16 0c-3.165 0-6.258 0.938-8.889 2.696s-4.682 4.257-5.893 7.181c-1.211 2.924-1.528 6.141-0.91 9.244s2.141 5.955 4.379 8.192c2.238 2.238 5.089 3.761 8.192 4.379s6.321 0.3 9.244-0.91c2.924-1.211 5.422-3.262 7.181-5.893s2.696-5.725 2.696-8.889c0-4.244-1.686-8.313-4.686-11.314s-7.070-4.686-11.314-4.686v0zM23.213 14.217c-1.427 0.158-2.651-0.406-3.874-1.126 0 0.118 0.036 3.773-0.025 5.516-0.061 1.792-0.701 3.368-2.105 4.545-2.977 2.499-7.202 1.149-8.21-2.672-0.547-2.082-0.072-3.958 1.562-5.442 0.92-0.842 2.055-1.217 3.272-1.373 0.261-0.034 0.524-0.049 0.806-0.074v2.829c-0.358 0.088-0.72 0.166-1.076 0.271-0.247 0.071-0.488 0.162-0.72 0.272-0.324 0.146-0.611 0.364-0.837 0.639s-0.386 0.597-0.468 0.943c-0.081 0.346-0.082 0.706-0.002 1.053s0.239 0.67 0.464 0.945c0.271 0.374 0.639 0.667 1.065 0.847s0.893 0.239 1.35 0.172c0.92-0.112 1.497-0.691 1.838-1.522 0.236-0.658 0.338-1.357 0.301-2.055-0.013-3.436-0.013-6.87-0.019-10.305 0.003-0.035 0.008-0.070 0.015-0.105h2.747c0.307 2.299 1.474 3.756 3.916 3.962v2.68z"></path>
</symbol>
<symbol id="icon-twitter" viewBox="0 0 32 32">
<path d="M16 0c-8.835 0-16 7.165-16 16s7.165 16 16 16c8.835 0 16-7.165 16-16s-7.165-16-16-16zM23.305 12.475c0.007 0.158 0.011 0.316 0.011 0.475 0 4.853-3.694 10.449-10.449 10.449-2.074 0-4.004-0.608-5.629-1.65 0.287 0.034 0.58 0.051 0.876 0.051 1.721 0 3.304-0.587 4.561-1.572-1.608-0.030-2.963-1.092-3.431-2.551 0.224 0.043 0.454 0.066 0.69 0.066 0.335 0 0.66-0.045 0.968-0.129-1.68-0.336-2.946-1.822-2.946-3.6 0-0.017 0-0.031 0-0.047 0.495 0.275 1.061 0.441 1.663 0.459-0.986-0.658-1.634-1.783-1.634-3.057 0-0.673 0.182-1.303 0.497-1.846 1.811 2.222 4.518 3.684 7.57 3.837-0.063-0.269-0.095-0.549-0.095-0.837 0-2.027 1.645-3.672 3.673-3.672 1.056 0 2.011 0.447 2.681 1.16 0.837-0.165 1.622-0.471 2.332-0.891-0.275 0.857-0.857 1.576-1.615 2.031 0.743-0.089 1.451-0.286 2.109-0.578-0.491 0.737-1.115 1.384-1.832 1.902z"></path>
</symbol>
<symbol id="icon-AliPay" viewBox="0 0 50 32">
<path fill="#499fe3" style="fill: var(--color1, #499fe3)" d="M3 0h44c1.657 0 3 1.343 3 3v26c0 1.657-1.343 3-3 3h-44c-1.657 0-3-1.343-3-3v-26c0-1.657 1.343-3 3-3z"></path>
<path fill="#fff" style="fill: var(--color2, #fff)" d="M15.827 18.092v-6.068c0-1.036-0.849-1.866-1.885-1.866h-8.056c-1.056 0-1.885 0.83-1.885 1.866v7.953c0 1.036 0.849 1.866 1.885 1.866h8.037c1.056 0 1.885-0.83 1.885-1.866v-0.083c0 0-3.088-1.262-4.639-2.008-1.036 1.262-2.381 2.028-3.79 2.028-0.869 0-1.596-0.309-2.028-0.766-0.206-0.226-0.353-0.496-0.437-0.785 0-0.020-0.020-0.064-0.020-0.083 0 0-0.020-0.039-0.020-0.103-0.103-0.56 0.064-1.139 0.476-1.635 0.25-0.29 0.663-0.579 1.306-0.727 1.016-0.25 2.612 0.147 4.099 0.643 0.27-0.496 0.496-1.036 0.663-1.615h-4.6v-0.457h2.381v-0.83h-2.882v-0.457h2.877v-1.178c0 0 0-0.206 0.206-0.206h1.159v1.389h2.867v0.457h-2.857v0.83h2.317c-0.226 0.913-0.56 1.738-0.992 2.464 0.702 0.25 1.345 0.496 1.821 0.643 1.718 0.555 2.111 0.594 2.111 0.594zM6.877 16.496c-0.29 0.020-0.849 0.167-1.159 0.412-0.913 0.785-0.373 2.214 1.473 2.214 1.075 0 2.136-0.682 2.98-1.762-1.203-0.55-2.194-0.967-3.294-0.864z"></path>
<path fill="#fff" style="fill: var(--color2, #fff)" d="M22.744 18.878h1.596l-2.98-6.505h-0.437c-0.064 0-0.147 0.020-0.206 0.064s-0.103 0.103-0.147 0.167l-3.024 6.274h1.075l0.54-1.055h3.088l0.496 1.055zM20.736 14.489l1.306 2.798h-2.676l1.37-2.798zM26.411 18.878h-1.448v-6.21c0-0.064 0.020-0.147 0.084-0.206 0.064-0.064 0.123-0.083 0.206-0.083h1.178v6.505h-0.020v-0.005zM27.673 14.366c0-0.064 0.020-0.147 0.084-0.187 0.064-0.064 0.123-0.083 0.206-0.083h1.178v4.787h-1.473v-4.517h0.005zM30.363 14.366c0-0.064 0.020-0.147 0.084-0.206 0.064-0.064 0.123-0.084 0.206-0.084h1.178v0.373c0.167-0.147 0.353-0.25 0.579-0.334 0.206-0.084 0.476-0.123 0.766-0.123 0.309 0 0.579 0.064 0.849 0.187 0.25 0.123 0.476 0.29 0.643 0.496 0.187 0.206 0.309 0.437 0.412 0.727 0.103 0.27 0.147 0.56 0.147 0.869 0 0.393-0.064 0.746-0.167 1.075-0.123 0.334-0.29 0.623-0.496 0.869-0.206 0.25-0.476 0.437-0.785 0.579-0.309 0.147-0.643 0.206-1.036 0.206-0.187 0-0.353 0-0.496-0.020-0.147-0.020-0.27-0.039-0.412-0.103v1.925h-1.473v-6.436zM31.836 17.533c0 0.123 0.020 0.226 0.064 0.334 0.039 0.103 0.103 0.186 0.187 0.27s0.167 0.147 0.29 0.187c0.103 0.039 0.226 0.064 0.373 0.064 0.123 0 0.25-0.039 0.353-0.123s0.206-0.186 0.29-0.353c0.084-0.147 0.147-0.334 0.206-0.54 0.039-0.206 0.083-0.437 0.083-0.663 0-0.309-0.020-0.579-0.064-0.81-0.039-0.226-0.103-0.437-0.187-0.579-0.084-0.167-0.167-0.27-0.27-0.354s-0.226-0.123-0.353-0.123c-0.084 0-0.187 0.020-0.27 0.039-0.084 0.039-0.167 0.083-0.25 0.123-0.084 0.064-0.147 0.123-0.226 0.187-0.064 0.084-0.147 0.147-0.206 0.226v2.111h-0.020v0.005zM39.004 14.136c-0.702-0.206-1.596-0.226-2.798 0.084 0.039 0.123 0.083 0.334 0.123 0.457 1.925-0.334 2.278-0.084 2.278 0.746v0.25c-0.353-0.020-0.766-0.084-1.1-0.084-1.306-0.020-1.782 1.016-1.782 1.679 0 1.139 1.1 2.214 2.877 1.429v0.186h1.492v-3.5c0.025-0.687-0.555-1.1-1.090-1.247zM36.932 17.287c0-0.56 0.457-0.972 1.016-1.016 0.353-0.020 0.56 0.039 0.682 0.123v1.635c-0.187 0.167-0.412 0.27-0.682 0.27-0.584 0-1.016-0.457-1.016-1.011zM40.516 13.993h1.551l1.532 2.941 1.262-2.754c0.020-0.064 0.064-0.103 0.123-0.147 0.064-0.039 0.123-0.039 0.187-0.039h0.83l-2.425 5.322c-0.579 1.448-2.008 1.242-2.258 1.242v-0.81c0.187 0 0.849 0 1.139-0.309 0.064-0.064 0.123-0.206 0.167-0.29s0.083-0.167 0.123-0.25l0.167-0.393-2.396-4.512z"></path>
<path fill="#fff" style="fill: var(--color2, #fff)" d="M29.205 12.667c0 0.393-0.354 0.702-0.785 0.702-0.437 0-0.785-0.309-0.785-0.702s0.354-0.702 0.785-0.702c0.432-0.005 0.785 0.309 0.785 0.702z"></path>
</symbol>
<symbol id="icon-Amazon" viewBox="0 0 50 32">
<path fill="#333" style="fill: var(--color3, #333)" d="M3 0h44c1.657 0 3 1.343 3 3v26c0 1.657-1.343 3-3 3h-44c-1.657 0-3-1.343-3-3v-26c0-1.657 1.343-3 3-3z"></path>
<path fill="#ff9201" style="fill: var(--color4, #ff9201)" d="M29.599 20.543c-2.223 1.617-5.407 2.476-8.136 2.476-3.84 0-7.327-1.415-9.955-3.79-0.202-0.202 0-0.455 0.202-0.303 2.83 1.668 6.367 2.628 9.955 2.628 2.425 0 5.154-0.505 7.63-1.567 0.354-0.101 0.657 0.303 0.303 0.556z"></path>
<path fill="#ff9201" style="fill: var(--color4, #ff9201)" d="M30.508 19.482c-0.303-0.354-1.87-0.152-2.577-0.101-0.202 0.051-0.253-0.152-0.051-0.303 1.263-0.91 3.335-0.606 3.588-0.354 0.253 0.303-0.050 2.375-1.263 3.386-0.202 0.152-0.354 0.050-0.253-0.152 0.202-0.606 0.809-2.072 0.556-2.476z"></path>
<path fill="#fff" style="fill: var(--color2, #fff)" d="M27.981 12.863v-0.859c0-0.152 0.101-0.202 0.202-0.202h3.841c0.101 0 0.202 0.101 0.202 0.202v0.758c0 0.101-0.101 0.303-0.303 0.556l-2.021 2.88c0.758 0 1.516 0.101 2.224 0.455 0.152 0.101 0.202 0.202 0.202 0.354v0.91c0 0.101-0.152 0.253-0.303 0.202-1.213-0.606-2.779-0.707-4.093 0-0.152 0.051-0.253-0.050-0.253-0.202v-0.91c0-0.152 0-0.354 0.152-0.606l2.325-3.335h-2.021c-0.050 0-0.152-0.101-0.152-0.202z"></path>
<path fill="#fff" style="fill: var(--color2, #fff)" d="M13.883 18.219h-1.162c-0.101 0-0.202-0.101-0.202-0.202v-6.013c0-0.101 0.101-0.202 0.202-0.202h1.112c0.101 0 0.202 0.101 0.202 0.202v0.809c0.303-0.758 0.809-1.112 1.566-1.112s1.213 0.354 1.516 1.112c0.303-0.758 0.91-1.112 1.617-1.112 0.505 0 1.011 0.202 1.364 0.657 0.354 0.505 0.303 1.263 0.303 1.87v3.79c0 0.101-0.101 0.202-0.202 0.202h-1.162c-0.101 0-0.202-0.101-0.202-0.202v-3.184c0-0.253 0-0.91-0.050-1.112-0.101-0.404-0.354-0.505-0.707-0.505-0.303 0-0.606 0.202-0.707 0.505s-0.101 0.809-0.101 1.162v3.184c0 0.101-0.101 0.202-0.202 0.202h-1.162c-0.101 0-0.202-0.101-0.202-0.202v-3.184c0-0.657 0.101-1.668-0.707-1.668-0.859 0-0.809 0.96-0.809 1.668v3.184c-0.101 0.051-0.202 0.152-0.303 0.152z"></path>
<path fill="#fff" style="fill: var(--color2, #fff)" d="M35.612 11.65c1.769 0 2.678 1.516 2.678 3.386 0 1.819-1.061 3.285-2.678 3.285-1.718 0-2.628-1.516-2.628-3.386-0.050-1.819 0.91-3.285 2.628-3.285zM35.612 12.914c-0.859 0-0.91 1.162-0.91 1.92s0 2.325 0.91 2.325c0.91 0 0.96-1.263 0.96-2.021 0-0.505 0-1.112-0.152-1.617-0.152-0.455-0.455-0.606-0.809-0.606z"></path>
<path fill="#fff" style="fill: var(--color2, #fff)" d="M40.564 18.22h-1.162c-0.101 0-0.202-0.101-0.202-0.202v-6.013c0-0.101 0.101-0.202 0.202-0.202h1.112c0.101 0 0.202 0.050 0.202 0.152v0.91c0.354-0.809 0.809-1.213 1.617-1.213 0.505 0 1.061 0.202 1.364 0.707s0.303 1.314 0.303 1.87v3.79c0 0.101-0.101 0.202-0.202 0.202h-1.162c-0.101 0-0.202-0.101-0.202-0.202v-3.285c0-0.657 0.101-1.617-0.758-1.617-0.303 0-0.556 0.202-0.657 0.505-0.152 0.354-0.202 0.758-0.202 1.162v3.234c-0.050 0.101-0.152 0.202-0.253 0.202z"></path>
<path fill="#fff" style="fill: var(--color2, #fff)" d="M24.899 15.339h0.050v-0.202c-0.859 0-1.769 0.152-1.769 1.162 0 0.505 0.253 0.859 0.707 0.859 0.303 0 0.606-0.202 0.808-0.556 0.202-0.404 0.202-0.809 0.202-1.263zM26.061 18.219c-0.101 0.050-0.202 0.050-0.253 0.050-0.404-0.303-0.455-0.455-0.657-0.808-0.657 0.657-1.112 0.859-1.92 0.859-1.011 0-1.769-0.606-1.769-1.819 0-0.96 0.505-1.617 1.263-1.92 0.657-0.303 1.516-0.354 2.223-0.404v-0.152c0-0.303 0-0.606-0.152-0.859-0.152-0.202-0.404-0.303-0.657-0.303-0.455 0-0.859 0.253-0.96 0.707 0 0.101-0.101 0.202-0.202 0.202l-1.162-0.101c-0.101 0-0.202-0.101-0.152-0.253 0.253-1.364 1.516-1.819 2.628-1.819 0.556 0 1.314 0.152 1.769 0.606 0.556 0.556 0.505 1.263 0.505 2.021v1.819c0 0.556 0.253 0.808 0.455 1.112 0.050 0.101 0.101 0.253 0 0.303-0.303 0.202-0.707 0.556-0.96 0.758z"></path>
<path fill="#fff" style="fill: var(--color2, #fff)" d="M9.487 15.339h0.051v-0.202c-0.859 0-1.769 0.152-1.769 1.162 0 0.505 0.253 0.859 0.707 0.859 0.303 0 0.606-0.202 0.809-0.556 0.202-0.404 0.202-0.809 0.202-1.263zM10.649 18.219c-0.101 0.050-0.202 0.050-0.303 0.050-0.404-0.303-0.455-0.455-0.657-0.808-0.657 0.657-1.112 0.859-1.92 0.859-1.011 0-1.769-0.606-1.769-1.819 0-0.96 0.505-1.617 1.263-1.92 0.657-0.303 1.516-0.354 2.223-0.404v-0.152c0-0.303 0-0.606-0.152-0.859-0.152-0.202-0.404-0.303-0.657-0.303-0.455 0-0.859 0.253-0.96 0.707 0 0.101-0.101 0.202-0.202 0.202l-1.162-0.101c-0.101 0-0.202-0.101-0.152-0.253 0.253-1.364 1.516-1.819 2.628-1.819 0.556 0 1.314 0.152 1.769 0.606 0.556 0.556 0.505 1.263 0.505 2.021v1.819c0 0.556 0.253 0.808 0.455 1.112 0.050 0.101 0.101 0.253 0 0.303-0.253 0.202-0.657 0.556-0.91 0.758z"></path>
</symbol>
<symbol id="icon-American-Express" viewBox="0 0 50 32">
<path fill="#306fc8" style="fill: var(--color5, #306fc8)" d="M3 0h44c1.657 0 3 1.343 3 3v26c0 1.657-1.343 3-3 3h-44c-1.657 0-3-1.343-3-3v-26c0-1.657 1.343-3 3-3z"></path>
<path fill="#fff" style="fill: var(--color2, #fff)" d="M21.64 23.435v-4.658l-2.154 2.294 2.154 2.364z"></path>
<path fill="#fff" style="fill: var(--color2, #fff)" d="M12.613 19.361v1.049l3.079-0.006v1.201h-3.079v1.15h3.452l1.607-1.703-1.543-1.691h-3.517z"></path>
<path fill="#fff" style="fill: var(--color2, #fff)" d="M25.696 10.533c0.18-0.102 0.289-0.305 0.289-0.553s-0.116-0.426-0.289-0.521c-0.167-0.095-0.418-0.102-0.669-0.102h-1.736v1.296h1.716c0.27 0 0.495-0.013 0.688-0.121z"></path>
<path fill="#fff" style="fill: var(--color2, #fff)" d="M2.584 11.448h1.922l-0.964-2.313-0.958 2.313z"></path>
<path fill="#fff" style="fill: var(--color2, #fff)" d="M24.88 19.361h-1.832v1.462h1.819c0.534 0 0.868-0.254 0.868-0.756-0.006-0.502-0.354-0.706-0.855-0.706z"></path>
<path fill="#fff" style="fill: var(--color2, #fff)" d="M2.944 13.806h1.209l0.546 1.303h4.725v-0.991l0.424 0.991h2.443l0.424-1.004v1.004h11.739v-2.123h0.231c0.167 0 0.212 0.019 0.212 0.28v1.843h6.069v-0.502c0.482 0.261 1.241 0.502 2.257 0.502h2.552l0.553-1.303h1.209l0.546 1.303h4.905v-1.233l0.752 1.233h3.941v-8.109h-3.896v0.953l-0.559-0.953h-4.005v0.953l-0.489-0.953h-5.413c-0.913 0-1.716 0.121-2.353 0.464v-0.464h-3.729v0.464c-0.437-0.35-0.984-0.464-1.601-0.464h-13.649l-0.926 2.091-0.926-2.091h-4.295v0.953l-0.489-0.953h-3.664l-1.691 3.845v4.264h2.398l0.546-1.303zM31.232 8.824c0.45-0.464 1.17-0.68 2.141-0.68h1.344v1.246h-1.318c-0.521 0-0.81 0.076-1.087 0.35-0.244 0.242-0.412 0.705-0.412 1.316 0 0.623 0.122 1.061 0.399 1.366 0.206 0.229 0.598 0.299 0.977 0.299h0.63l1.98-4.576h2.096l2.385 5.504v-5.504h2.147l2.469 4.048v-4.048h1.447v5.821h-2.006l-2.655-4.36v4.36h-2.861l-0.54-1.303h-2.925l-0.54 1.303h-1.633c-0.688 0-1.556-0.159-2.044-0.648-0.495-0.496-0.746-1.163-0.746-2.218 0-0.864 0.154-1.652 0.752-2.275zM28.351 8.144h1.44v5.821h-1.44v-5.821zM21.89 8.144h3.24c0.714 0 1.241 0.025 1.691 0.28 0.45 0.261 0.727 0.642 0.727 1.29 0 0.921-0.63 1.398-1.003 1.544 0.309 0.114 0.572 0.324 0.694 0.496 0.199 0.28 0.231 0.547 0.231 1.055v1.157h-1.414v-0.737c0-0.343 0.032-0.852-0.232-1.125-0.199-0.21-0.508-0.254-1.022-0.254h-1.511v2.116h-1.408v-5.821h0.006zM16.22 8.144h4.693v1.214h-3.292v1.049h3.208v1.195h-3.208v1.15l3.292-0.006v1.214h-4.693v-5.815zM1.543 13.965h-1.53l2.514-5.821h2.096l2.385 5.504v-5.504h2.302l1.832 3.947 1.691-3.947h2.34v5.821h-1.44v-4.557l-2.038 4.557h-1.234l-2.044-4.563v4.563h-2.867l-0.54-1.303h-2.925l-0.54 1.303z"></path>
<path fill="#fff" style="fill: var(--color2, #fff)" d="M36.902 9.135l-0.958 2.313h1.916l-0.958-2.313z"></path>
<path fill="#fff" style="fill: var(--color2, #fff)" d="M46.886 19.494c-0.148 0.095-0.212 0.235-0.212 0.419 0 0.216 0.129 0.369 0.309 0.432 0.141 0.051 0.302 0.064 0.54 0.064l0.752 0.019c0.778 0.019 1.292 0.146 1.607 0.47 0.045 0.044 0.084 0.089 0.116 0.133v-1.64h-2.552c-0.251 0-0.424 0.013-0.559 0.102z"></path>
<path fill="#fff" style="fill: var(--color2, #fff)" d="M48.101 23.962h-2.713v-1.246h2.7c0.264 0 0.45-0.038 0.566-0.14 0.096-0.089 0.167-0.216 0.167-0.381 0-0.172-0.071-0.305-0.174-0.388-0.103-0.089-0.251-0.127-0.489-0.127-1.312-0.038-2.964 0.044-2.964-1.805 0-0.832 0.534-1.729 2.012-1.729h2.797v-1.144h-2.604c-0.778 0-1.363 0.178-1.761 0.464v-0.464h-3.838c-0.611 0-1.344 0.146-1.684 0.464v-0.464h-6.873v0.464c-0.547-0.381-1.466-0.464-1.903-0.464h-4.532v0.464c-0.431-0.413-1.382-0.464-1.967-0.464h-5.079l-1.164 1.246-1.080-1.246h-7.573v8.109h7.438l1.189-1.265 1.131 1.258 4.577 0.006v-1.913h0.456c0.604 0 1.324-0.013 1.948-0.28v2.192h3.793v-2.123h0.186c0.232 0 0.251 0.019 0.251 0.235v1.887h11.476c0.72 0 1.498-0.184 1.922-0.515v0.515h3.639c0.752 0 1.498-0.108 2.064-0.375v-1.506c-0.367 0.496-1.009 0.731-1.916 0.731zM24.79 22.017h-1.749v1.945h-2.739l-1.723-1.913-1.8 1.919h-5.574v-5.821h5.657l1.723 1.913 1.794-1.913h4.5c1.106 0 2.359 0.318 2.359 1.926-0.006 1.608-1.221 1.945-2.449 1.945zM33.25 21.757c0.199 0.28 0.231 0.546 0.238 1.055v1.15h-1.414v-0.737c0-0.343 0.032-0.852-0.231-1.125-0.206-0.21-0.508-0.254-1.022-0.254h-1.511v2.116h-1.408v-5.821h3.24c0.714 0 1.234 0.025 1.691 0.286 0.45 0.261 0.726 0.642 0.726 1.29 0 0.922-0.63 1.398-0.996 1.544 0.309 0.114 0.572 0.324 0.688 0.496zM39.030 19.361h-3.285v1.049h3.215v1.201h-3.215v1.15h3.292v1.207h-4.693v-5.821h4.693v1.214h-0.006zM42.604 23.962h-2.739v-1.246h2.726c0.264 0 0.45-0.038 0.566-0.14 0.096-0.089 0.167-0.216 0.167-0.381 0-0.172-0.071-0.305-0.174-0.388-0.103-0.089-0.251-0.127-0.489-0.127-1.312-0.038-2.964 0.044-2.964-1.805 0-0.839 0.534-1.729 2.012-1.729h2.816v1.246h-2.578c-0.257 0-0.424 0.006-0.566 0.095-0.148 0.095-0.206 0.235-0.206 0.419 0 0.216 0.129 0.369 0.309 0.432 0.148 0.051 0.302 0.064 0.54 0.064l0.752 0.019c0.778 0.019 1.292 0.146 1.607 0.47 0.276 0.292 0.424 0.629 0.424 1.233 0.006 1.246-0.778 1.837-2.205 1.837z"></path>
<path fill="#fff" style="fill: var(--color2, #fff)" d="M31.714 19.457c-0.167-0.089-0.424-0.095-0.669-0.095h-1.736v1.296h1.716c0.27 0 0.501-0.006 0.688-0.114 0.18-0.102 0.289-0.305 0.289-0.553-0.006-0.254-0.116-0.432-0.289-0.534z"></path>
</symbol>
<symbol id="icon-ApplePay" viewBox="0 0 50 32">
<path fill="#000" style="fill: var(--color6, #000)" d="M3 0h44c1.657 0 3 1.343 3 3v26c0 1.657-1.343 3-3 3h-44c-1.657 0-3-1.343-3-3v-26c0-1.657 1.343-3 3-3z"></path>
<path fill="#fff" style="fill: var(--color2, #fff)" d="M12.943 10.193c-0.445 0.529-1.158 0.946-1.87 0.886-0.089-0.715 0.26-1.474 0.668-1.943 0.445-0.543 1.225-0.931 1.856-0.96 0.074 0.744-0.215 1.474-0.653 2.018zM13.589 11.221c-1.032-0.060-1.915 0.588-2.405 0.588-0.497 0-1.247-0.558-2.063-0.543-1.061 0.015-2.049 0.618-2.591 1.578-1.113 1.921-0.289 4.765 0.787 6.328 0.527 0.774 1.158 1.623 1.989 1.593 0.787-0.030 1.099-0.514 2.049-0.514 0.957 0 1.232 0.514 2.063 0.499 0.861-0.015 1.403-0.774 1.93-1.549 0.601-0.878 0.846-1.735 0.861-1.779-0.015-0.015-1.663-0.648-1.678-2.554-0.015-1.593 1.299-2.352 1.358-2.397-0.742-1.102-1.9-1.221-2.301-1.251zM19.549 9.062v11.606h1.796v-3.968h2.487c2.271 0 3.867-1.563 3.867-3.827s-1.566-3.812-3.808-3.812h-4.342zM21.346 10.58h2.071c1.559 0 2.45 0.834 2.45 2.3s-0.891 2.308-2.457 2.308h-2.064v-4.608zM30.98 20.757c1.128 0 2.175-0.573 2.65-1.482h0.037v1.392h1.663v-5.777c0-1.675-1.336-2.755-3.392-2.755-1.908 0-3.318 1.094-3.37 2.598h1.618c0.134-0.715 0.794-1.184 1.7-1.184 1.099 0 1.715 0.514 1.715 1.459v0.64l-2.242 0.134c-2.086 0.127-3.214 0.983-3.214 2.472 0 1.504 1.165 2.501 2.835 2.501zM31.463 19.38c-0.957 0-1.566-0.462-1.566-1.169 0-0.73 0.586-1.154 1.707-1.221l1.997-0.127v0.655c0 1.087-0.92 1.861-2.138 1.861zM37.55 23.825c1.752 0 2.576-0.67 3.296-2.702l3.155-8.874h-1.826l-2.115 6.857h-0.037l-2.115-6.857h-1.878l3.043 8.45-0.163 0.514c-0.275 0.871-0.72 1.206-1.514 1.206-0.141 0-0.416-0.015-0.527-0.030v1.392c0.104 0.030 0.549 0.045 0.683 0.045z"></path>
</symbol>
<symbol id="icon-Bitcoin" viewBox="0 0 50 32">
<path fill="#f7931a" style="fill: var(--color7, #f7931a)" d="M3 0h44c1.657 0 3 1.343 3 3v26c0 1.657-1.343 3-3 3h-44c-1.657 0-3-1.343-3-3v-26c0-1.657 1.343-3 3-3z"></path>
<path fill="#fff" style="fill: var(--color2, #fff)" d="M14.331 22.531c0.3 0 0.559 0.054 0.777 0.159s0.4 0.25 0.544 0.431c0.143 0.182 0.249 0.394 0.318 0.637s0.103 0.506 0.103 0.787c0 0.431-0.079 0.839-0.239 1.223s-0.376 0.718-0.651 1.003c-0.275 0.284-0.6 0.508-0.974 0.674s-0.78 0.248-1.217 0.248c-0.056 0-0.156-0.002-0.296-0.005s-0.301-0.017-0.482-0.042c-0.182-0.025-0.374-0.063-0.576-0.113s-0.395-0.118-0.576-0.206l1.621-6.81 1.452-0.225-0.58 2.417c0.124-0.056 0.249-0.099 0.374-0.131s0.259-0.047 0.403-0.047zM13.113 26.542c0.219 0 0.425-0.054 0.618-0.159s0.362-0.248 0.502-0.426c0.14-0.179 0.251-0.38 0.332-0.604s0.122-0.459 0.122-0.703c0-0.3-0.050-0.534-0.15-0.703s-0.285-0.253-0.553-0.253c-0.088 0-0.201 0.017-0.342 0.047-0.141 0.032-0.267 0.098-0.38 0.197l-0.618 2.567c0.037 0.007 0.070 0.013 0.098 0.019s0.058 0.011 0.088 0.014c0.032 0.004 0.069 0.006 0.113 0.006s0.1 0 0.168 0z"></path>
<path fill="#fff" style="fill: var(--color2, #fff)" d="M17.579 27.564h-1.387l1.171-4.927h1.396l-1.18 4.927zM18.254 22.036c-0.194 0-0.369-0.058-0.525-0.173-0.157-0.115-0.235-0.291-0.235-0.529 0-0.131 0.027-0.254 0.079-0.37s0.123-0.215 0.211-0.3c0.088-0.084 0.189-0.151 0.304-0.202s0.239-0.075 0.371-0.075c0.193 0 0.368 0.058 0.524 0.173s0.234 0.293 0.234 0.529c0 0.131-0.026 0.255-0.080 0.37s-0.123 0.215-0.21 0.3c-0.087 0.084-0.189 0.151-0.304 0.201s-0.239 0.075-0.37 0.075z"></path>
<path fill="#fff" style="fill: var(--color2, #fff)" d="M19.974 21.409l1.452-0.225-0.357 1.452h1.555l-0.281 1.143h-1.546l-0.412 1.724c-0.038 0.144-0.059 0.278-0.065 0.402s0.009 0.233 0.047 0.323c0.037 0.091 0.104 0.161 0.201 0.21s0.235 0.076 0.417 0.076c0.15 0 0.295-0.014 0.436-0.043s0.282-0.066 0.426-0.117l0.104 1.068c-0.187 0.069-0.39 0.128-0.609 0.178s-0.478 0.075-0.778 0.075c-0.431 0-0.765-0.064-1.003-0.191-0.238-0.128-0.405-0.304-0.506-0.525-0.099-0.221-0.143-0.476-0.131-0.763s0.056-0.59 0.131-0.909l0.919-3.878z"></path>
<path fill="#fff" style="fill: var(--color2, #fff)" d="M22.564 25.596c0-0.424 0.069-0.825 0.206-1.199s0.334-0.703 0.591-0.984c0.255-0.28 0.566-0.502 0.932-0.665 0.364-0.162 0.772-0.244 1.222-0.244 0.281 0 0.533 0.027 0.754 0.080s0.423 0.123 0.605 0.211l-0.478 1.087c-0.125-0.051-0.255-0.095-0.389-0.136s-0.298-0.061-0.492-0.061c-0.463 0-0.829 0.16-1.101 0.477-0.271 0.318-0.408 0.747-0.408 1.284 0 0.318 0.069 0.576 0.207 0.773s0.391 0.295 0.759 0.295c0.182 0 0.357-0.019 0.525-0.056 0.169-0.037 0.318-0.085 0.45-0.14l0.104 1.115c-0.175 0.068-0.369 0.129-0.581 0.183-0.213 0.052-0.466 0.079-0.759 0.079-0.387 0-0.715-0.057-0.983-0.168-0.268-0.113-0.49-0.264-0.665-0.454s-0.302-0.414-0.38-0.67c-0.078-0.256-0.118-0.525-0.118-0.805z"></path>
<path fill="#fff" style="fill: var(--color2, #fff)" d="M28.724 27.694c-0.331 0-0.618-0.050-0.862-0.15s-0.445-0.24-0.604-0.421c-0.16-0.181-0.279-0.395-0.361-0.642s-0.121-0.52-0.121-0.819c0-0.375 0.060-0.751 0.182-1.125s0.301-0.712 0.539-1.011c0.236-0.3 0.527-0.545 0.871-0.736 0.343-0.19 0.737-0.285 1.18-0.285 0.325 0 0.611 0.051 0.858 0.15 0.246 0.1 0.449 0.241 0.609 0.421 0.158 0.182 0.279 0.395 0.36 0.642s0.122 0.52 0.122 0.819c0 0.374-0.059 0.749-0.177 1.125-0.118 0.373-0.293 0.711-0.525 1.011s-0.52 0.545-0.866 0.735c-0.346 0.19-0.748 0.286-1.204 0.286zM29.417 23.685c-0.206 0-0.387 0.060-0.543 0.177-0.156 0.119-0.287 0.269-0.393 0.45-0.107 0.182-0.186 0.38-0.24 0.595s-0.079 0.42-0.079 0.613c0 0.313 0.050 0.556 0.15 0.731 0.101 0.174 0.281 0.262 0.544 0.262 0.206 0 0.387-0.059 0.544-0.178 0.155-0.118 0.287-0.268 0.393-0.45s0.186-0.379 0.24-0.595c0.052-0.215 0.079-0.42 0.079-0.613 0-0.312-0.050-0.556-0.15-0.731s-0.281-0.262-0.544-0.262z"></path>
<path fill="#fff" style="fill: var(--color2, #fff)" d="M33.003 27.564h-1.388l1.171-4.927h1.397l-1.18 4.927zM33.677 22.036c-0.193 0-0.369-0.058-0.524-0.173s-0.235-0.291-0.235-0.529c0-0.131 0.027-0.254 0.080-0.37s0.123-0.215 0.211-0.3c0.087-0.084 0.189-0.151 0.304-0.202s0.239-0.075 0.37-0.075c0.194 0 0.369 0.058 0.525 0.173s0.235 0.293 0.235 0.529c0 0.131-0.028 0.255-0.080 0.37s-0.123 0.215-0.21 0.3c-0.088 0.084-0.189 0.151-0.304 0.201s-0.239 0.075-0.371 0.075z"></path>
<path fill="#fff" style="fill: var(--color2, #fff)" d="M35.186 22.86c0.105-0.031 0.223-0.068 0.351-0.108s0.272-0.078 0.432-0.111c0.158-0.035 0.337-0.063 0.534-0.085s0.42-0.033 0.669-0.033c0.731 0 1.235 0.213 1.514 0.637s0.326 1.006 0.146 1.742l-0.638 2.66h-1.396l0.618-2.605c0.038-0.163 0.067-0.32 0.089-0.473 0.022-0.152 0.021-0.286-0.005-0.402-0.025-0.115-0.083-0.209-0.173-0.281-0.092-0.072-0.23-0.108-0.417-0.108-0.181 0-0.365 0.019-0.553 0.057l-0.909 3.812h-1.396l1.134-4.703z"></path>
<path fill="#fff" style="fill: var(--color2, #fff)" d="M31.302 12.672c-0.868 3.48-4.393 5.598-7.874 4.73-3.48-0.868-5.598-4.393-4.73-7.873s4.393-5.599 7.873-4.731c3.481 0.868 5.599 4.393 4.731 7.873z"></path>
<path fill="#f7931a" style="fill: var(--color7, #f7931a)" d="M27.864 10.175c0.129-0.864-0.529-1.329-1.429-1.639l0.292-1.171-0.713-0.178-0.284 1.14c-0.187-0.047-0.38-0.091-0.571-0.134l0.286-1.148-0.712-0.178-0.292 1.171c-0.155-0.035-0.307-0.070-0.455-0.107l0.001-0.004-0.983-0.245-0.19 0.761c0 0 0.529 0.121 0.518 0.129 0.289 0.072 0.341 0.263 0.332 0.415l-0.333 1.334c0.020 0.005 0.046 0.012 0.074 0.024-0.024-0.006-0.049-0.012-0.075-0.019l-0.466 1.869c-0.035 0.088-0.125 0.219-0.327 0.169 0.007 0.010-0.518-0.129-0.518-0.129l-0.354 0.816 0.928 0.231c0.173 0.043 0.342 0.088 0.508 0.131l-0.295 1.184 0.712 0.178 0.292-1.172c0.195 0.053 0.383 0.101 0.568 0.147l-0.291 1.166 0.713 0.178 0.295-1.182c1.216 0.23 2.13 0.137 2.514-0.962 0.31-0.885-0.015-1.396-0.655-1.729 0.466-0.107 0.817-0.414 0.91-1.046zM26.236 12.459c-0.22 0.885-1.711 0.407-2.194 0.287l0.391-1.569c0.483 0.121 2.033 0.359 1.802 1.283zM26.456 10.163c-0.201 0.805-1.442 0.396-1.844 0.296l0.355-1.423c0.402 0.1 1.698 0.287 1.489 1.127z"></path>
</symbol>
<symbol id="icon-BitPay" viewBox="0 0 50 32">
<path fill="#2e408b" style="fill: var(--color8, #2e408b)" d="M3 0h44c1.657 0 3 1.343 3 3v26c0 1.657-1.343 3-3 3h-44c-1.657 0-3-1.343-3-3v-26c0-1.657 1.343-3 3-3z"></path>
<path fill="#fff" style="fill: var(--color2, #fff)" d="M43 12.681h-1.853l-1.095 4.565-0.168 0.634c-0.126 0.042-0.211 0.042-0.337 0.085-0.169 0.042-0.337 0.042-0.547 0.042-0.253 0-0.421-0.042-0.59-0.127-0.126-0.084-0.253-0.169-0.295-0.296s-0.084-0.296-0.084-0.465 0.042-0.38 0.084-0.549l0.59-2.367 0.379-1.564h-1.895l-0.884 3.677c-0.126 0.465-0.169 0.888-0.169 1.226 0 0.423 0.042 0.761 0.169 1.057s0.379 0.549 0.716 0.718c0.337 0.169 0.8 0.254 1.347 0.254 0.421 0 0.8-0.042 1.095-0.127h0.042c-0.084 0.381-0.253 0.676-0.547 0.93s-0.674 0.381-1.179 0.381c-0.211 0-0.463 0-0.632-0.042l-0.379 1.522c0.253 0.042 0.547 0.042 0.842 0.042 0.59 0 1.095-0.084 1.474-0.211 0.421-0.127 0.8-0.338 1.137-0.592 0.295-0.254 0.589-0.592 0.8-1.014s0.379-0.888 0.505-1.395l1.263-5.453 0.211-0.93zM35.211 16.612c-0.126 0.465-0.168 0.972-0.126 1.437 0.042 0.507 0.253 1.183 0.421 1.564h-1.811c-0.211-0.38-0.211-0.549-0.253-0.676-0.253 0.211-0.505 0.338-0.8 0.465s-0.59 0.211-0.968 0.211c-0.421 0-0.8-0.084-1.095-0.211s-0.547-0.338-0.758-0.592c-0.211-0.254-0.337-0.549-0.421-0.888s-0.126-0.676-0.126-1.099c0-0.592 0.126-1.141 0.295-1.606 0.21-0.507 0.505-0.972 0.884-1.31 0.379-0.38 1.221-1.226 2.695-1.226h2.905l-0.842 3.931zM33.863 14.288c-0.884 0-1.053 0-1.389 0.169-0.253 0.127-0.463 0.338-0.674 0.592-0.168 0.211-0.337 0.507-0.463 0.803s-0.168 0.634-0.168 0.972c0 0.423 0.084 0.719 0.21 0.972s0.379 0.338 0.758 0.338c0.211 0 0.379-0.042 0.547-0.127s0.337-0.211 0.505-0.38c0-0.211 0.042-0.423 0.084-0.676s0.084-0.465 0.126-0.634l0.463-2.029zM28.853 15.429c0 0.634-0.126 1.183-0.295 1.691-0.21 0.507-0.505 0.972-0.842 1.31-0.379 0.38-0.8 0.676-1.263 0.888-0.505 0.211-1.053 0.338-1.6 0.338-0.295 0-0.589-0.042-0.884-0.084l-0.59 2.282h-1.853l2.147-9.13h2.484c0.463 0 0.884 0.085 1.179 0.211 0.337 0.127 0.632 0.338 0.842 0.592s0.379 0.55 0.505 0.888c0.126 0.296 0.168 0.634 0.168 1.014zM24.263 18.007c0.126 0.042 0.337 0.042 0.547 0.042 0.337 0 0.632-0.042 0.926-0.169 0.253-0.127 0.505-0.296 0.716-0.507s0.337-0.507 0.463-0.803 0.168-0.676 0.168-1.057c0-0.38-0.084-0.676-0.253-0.93s-0.463-0.38-0.842-0.38h-0.758l-0.968 3.804zM20.39 18.007c-0.253 0-0.421-0.042-0.59-0.127-0.126-0.084-0.253-0.169-0.295-0.296s-0.084-0.296-0.084-0.465 0.042-0.38 0.084-0.549l0.589-2.367h2.105l0.379-1.564h-2.147l0.505-1.987-1.979 0.338-1.263 5.368c-0.126 0.465-0.168 0.888-0.168 1.226 0 0.423 0.042 0.761 0.168 1.057s0.379 0.549 0.716 0.718c0.337 0.169 0.8 0.254 1.347 0.254 0.421 0 0.8-0.042 1.095-0.127 0.042 0 0.084 0 0.126-0.042l0.379-1.606c-0.126 0.042-0.253 0.084-0.379 0.084-0.21 0.084-0.379 0.084-0.589 0.084zM15.632 12.681l-1.642 6.932h1.853l1.642-6.932h-1.853zM17.653 11.878l0.295-1.184h-1.853l-0.295 1.184h1.853zM11.505 12.681c0.421 0 0.758 0.085 1.053 0.211s0.547 0.338 0.758 0.592c0.21 0.254 0.337 0.55 0.421 0.888s0.126 0.676 0.126 1.057c0 0.592-0.126 1.141-0.337 1.648s-0.505 0.972-0.884 1.353c-0.379 0.423-0.8 0.676-1.305 0.93-0.505 0.211-1.053 0.338-1.6 0.338h-0.463c-0.211 0-0.421 0-0.674-0.042s-0.505-0.084-0.8-0.169c-0.295-0.084-0.547-0.169-0.8-0.296l2.189-9.172 1.937-0.296-0.8 3.255c0.168-0.085 0.337-0.127 0.505-0.169 0.295-0.127 0.463-0.127 0.674-0.127zM9.821 18.092c0.295 0 0.589-0.085 0.842-0.211s0.505-0.338 0.674-0.592c0.211-0.254 0.337-0.507 0.463-0.803s0.168-0.634 0.168-0.972c0-0.423-0.084-0.719-0.21-0.972-0.126-0.211-0.421-0.338-0.8-0.338-0.126 0-0.253 0-0.421 0.042-0.21 0.042-0.337 0.127-0.505 0.254l-0.842 3.466c0.253 0.042 0.337 0.042 0.379 0.042 0.084 0.085 0.168 0.085 0.253 0.085z"></path>
</symbol>
<symbol id="icon-Discover" viewBox="0 0 50 32">
<path fill="#f8f8f8" style="fill: var(--color9, #f8f8f8)" d="M3 0h44c1.657 0 3 1.343 3 3v26c0 1.657-1.343 3-3 3h-44c-1.657 0-3-1.343-3-3v-26c0-1.657 1.343-3 3-3z"></path>
<path fill="#f58220" style="fill: var(--color10, #f58220)" d="M14.453 32h33.906c0.898 0 1.641-0.742 1.641-1.641v-11.484c-3.242 2.070-15.508 9.18-35.547 13.125z"></path>
<path fill="#231f20" style="fill: var(--color11, #231f20)" d="M7.722 12.972h-1.722v6.013h1.713c0.911 0 1.568-0.215 2.145-0.694 0.686-0.568 1.092-1.423 1.092-2.308 0-1.774-1.326-3.011-3.228-3.011zM9.092 17.489c-0.369 0.333-0.847 0.478-1.605 0.478h-0.315v-3.976h0.315c0.758 0 1.218 0.136 1.605 0.486 0.406 0.361 0.65 0.921 0.65 1.497 0 0.577-0.244 1.154-0.65 1.515z"></path>
<path fill="#231f20" style="fill: var(--color11, #231f20)" d="M12.663 12.972h-1.173v6.013h1.173v-6.013z"></path>
<path fill="#231f20" style="fill: var(--color11, #231f20)" d="M15.531 15.28c-0.704-0.26-0.911-0.432-0.911-0.757 0-0.379 0.368-0.666 0.874-0.666 0.351 0 0.64 0.144 0.946 0.487l0.614-0.803c-0.504-0.441-1.108-0.667-1.767-0.667-1.064 0-1.876 0.739-1.876 1.723 0 0.829 0.378 1.253 1.479 1.649 0.459 0.162 0.693 0.27 0.811 0.342 0.234 0.153 0.352 0.37 0.352 0.622 0 0.487-0.387 0.848-0.911 0.848-0.559 0-1.010-0.28-1.28-0.802l-0.758 0.73c0.54 0.793 1.189 1.145 2.082 1.145 1.219 0 2.074-0.81 2.074-1.974-0-0.955-0.395-1.388-1.73-1.876z"></path>
<path fill="#231f20" style="fill: var(--color11, #231f20)" d="M17.63 15.983c0 1.768 1.388 3.138 3.174 3.138 0.505 0 0.937-0.099 1.471-0.35v-1.381c-0.469 0.469-0.884 0.659-1.416 0.659-1.181 0-2.020-0.857-2.020-2.074 0-1.154 0.865-2.065 1.965-2.065 0.559 0 0.983 0.2 1.471 0.677v-1.38c-0.515-0.261-0.938-0.369-1.443-0.369-1.777 0-3.202 1.399-3.202 3.147z"></path>
<path fill="#231f20" style="fill: var(--color11, #231f20)" d="M31.574 17.011l-1.604-4.039h-1.281l2.552 6.167h0.631l2.598-6.168h-1.272l-1.624 4.039z"></path>
<path fill="#231f20" style="fill: var(--color11, #231f20)" d="M35.001 18.986h3.326v-1.018h-2.154v-1.623h2.075v-1.019h-2.075v-1.335h2.154v-1.019h-3.326v6.013z"></path>
<path fill="#231f20" style="fill: var(--color11, #231f20)" d="M42.971 14.747c0-1.126-0.775-1.775-2.128-1.775h-1.739v6.013h1.172v-2.416h0.153l1.623 2.416h1.442l-1.893-2.533c0.883-0.18 1.37-0.784 1.37-1.705zM40.618 15.74h-0.343v-1.821h0.361c0.73 0 1.128 0.306 1.128 0.891 0 0.605-0.397 0.93-1.146 0.93z"></path>
<path fill="#000" style="fill: var(--color6, #000)" d="M25.857 19.198c1.767 0 3.199-1.432 3.199-3.199s-1.432-3.199-3.199-3.199c-1.767 0-3.199 1.432-3.199 3.199s1.432 3.199 3.199 3.199z"></path>
<path fill="#000" style="fill: var(--color6, #000)" opacity="0.65" d="M25.857 19.198c1.767 0 3.199-1.432 3.199-3.199s-1.432-3.199-3.199-3.199c-1.767 0-3.199 1.432-3.199 3.199s1.432 3.199 3.199 3.199z"></path>
<path fill="#231f20" style="fill: var(--color11, #231f20)" d="M43.72 13.198c0-0.105-0.073-0.163-0.2-0.163h-0.17v0.528h0.126v-0.205l0.148 0.205h0.154l-0.174-0.218c0.075-0.020 0.116-0.074 0.116-0.148zM43.498 13.271h-0.021v-0.138h0.023c0.062 0 0.095 0.022 0.095 0.068s-0.033 0.070-0.096 0.070z"></path>
<path fill="#231f20" style="fill: var(--color11, #231f20)" d="M43.545 12.838c-0.257 0-0.46 0.205-0.46 0.461s0.206 0.461 0.46 0.461c0.25 0 0.455-0.207 0.455-0.461 0-0.252-0.205-0.461-0.455-0.461zM43.543 13.677c-0.202 0-0.367-0.168-0.367-0.378s0.163-0.378 0.367-0.378c0.201 0 0.365 0.172 0.365 0.378 0 0.208-0.164 0.378-0.365 0.378z"></path>
</symbol>
<symbol id="icon-eBay" viewBox="0 0 50 32">
<path fill="#000" style="fill: var(--color6, #000)" d="M3 0h44c1.657 0 3 1.343 3 3v26c0 1.657-1.343 3-3 3h-44c-1.657 0-3-1.343-3-3v-26c0-1.657 1.343-3 3-3z"></path>
<path fill="#e53238" style="fill: var(--color12, #e53238)" d="M10.914 11.709c-2.68 0-4.914 1.137-4.914 4.568 0 2.718 1.502 4.429 4.983 4.429 4.097 0 4.36-2.699 4.36-2.699h-1.985c0 0-0.426 1.453-2.496 1.453-1.686 0-2.899-1.139-2.899-2.735h7.588v-1.002c0-1.579-1.003-4.014-4.637-4.014zM10.845 12.989c1.605 0 2.699 0.983 2.699 2.457h-5.537c0-1.565 1.428-2.457 2.838-2.457z"></path>
<path fill="#0064d2" style="fill: var(--color13, #0064d2)" d="M15.549 8.387v10.596c0 0.602-0.043 1.446-0.043 1.446h1.894c0 0 0.068-0.607 0.068-1.161 0 0 0.936 1.464 3.48 1.464 2.679 0 4.498-1.86 4.498-4.524 0-2.479-1.671-4.473-4.494-4.473-2.643 0-3.465 1.427-3.465 1.427v-4.775h-1.938zM20.463 13.045c1.819 0 2.976 1.35 2.976 3.162 0 1.943-1.336 3.214-2.963 3.214-1.942 0-2.989-1.516-2.989-3.197 0-1.566 0.94-3.179 2.976-3.179z"></path>
<path fill="#f5af02" style="fill: var(--color14, #f5af02)" d="M30.152 11.709c-4.032 0-4.291 2.208-4.291 2.561h2.007c0 0 0.105-1.289 2.146-1.289 1.326 0 2.353 0.607 2.353 1.773v0.415h-2.353c-3.124 0-4.775 0.914-4.775 2.768 0 1.825 1.526 2.818 3.588 2.818 2.81 0 3.716-1.553 3.716-1.553 0 0.618 0.048 1.226 0.048 1.226h1.784c0 0-0.069-0.755-0.069-1.237v-4.172c0-2.735-2.206-3.311-4.152-3.311zM32.367 16.415v0.554c0 0.722-0.446 2.517-3.069 2.517-1.436 0-2.052-0.717-2.052-1.549 0-1.513 2.074-1.523 5.121-1.523z"></path>
<path fill="#86b817" style="fill: var(--color15, #86b817)" d="M33.224 12.055h2.258l3.24 6.492 3.233-6.492h2.045l-5.889 11.557h-2.145l1.699-3.222-4.442-8.336z"></path>
</symbol>
<symbol id="icon-Google-Pay" viewBox="0 0 50 32">
<path fill="#5485ec" style="fill: var(--color16, #5485ec)" d="M3 0h44c1.657 0 3 1.343 3 3v26c0 1.657-1.343 3-3 3h-44c-1.657 0-3-1.343-3-3v-26c0-1.657 1.343-3 3-3z"></path>
<path fill="#fff" style="fill: var(--color2, #fff)" d="M23.972 16.827v4.423h-1.403v-10.923h3.721c0.444-0.009 0.886 0.069 1.3 0.232s0.791 0.405 1.11 0.714c0.323 0.29 0.579 0.646 0.753 1.044s0.26 0.828 0.254 1.262c0.009 0.436-0.076 0.869-0.25 1.269s-0.432 0.758-0.757 1.049c-0.651 0.621-1.454 0.931-2.41 0.93l-2.318 0.001zM23.972 11.672v3.813h2.353c0.258 0.008 0.515-0.039 0.754-0.136s0.455-0.243 0.635-0.429c0.178-0.174 0.32-0.381 0.417-0.61s0.147-0.476 0.147-0.725c0-0.249-0.050-0.495-0.147-0.725s-0.239-0.437-0.417-0.61c-0.177-0.19-0.392-0.339-0.632-0.439s-0.497-0.148-0.756-0.14l-2.353 0.001z"></path>
<path fill="#fff" style="fill: var(--color2, #fff)" d="M32.94 13.532c1.037 0 1.856 0.277 2.456 0.832s0.9 1.314 0.899 2.28v4.606h-1.342v-1.037h-0.061c-0.581 0.854-1.354 1.281-2.318 1.281-0.823 0-1.512-0.244-2.067-0.732-0.266-0.224-0.479-0.505-0.622-0.821s-0.215-0.661-0.209-1.009c0-0.773 0.292-1.388 0.877-1.845s1.365-0.686 2.341-0.687c0.833 0 1.519 0.152 2.059 0.458v-0.321c0.002-0.237-0.050-0.471-0.15-0.686s-0.247-0.405-0.43-0.556c-0.371-0.335-0.855-0.517-1.354-0.512-0.784 0-1.404 0.331-1.861 0.992l-1.236-0.778c0.68-0.976 1.686-1.464 3.018-1.464zM31.124 18.962c-0.001 0.179 0.041 0.355 0.122 0.514s0.199 0.297 0.344 0.401c0.31 0.244 0.696 0.373 1.090 0.366 0.592-0.001 1.16-0.237 1.578-0.655 0.465-0.438 0.697-0.951 0.697-1.54-0.438-0.349-1.048-0.523-1.83-0.523-0.57 0-1.045 0.137-1.426 0.412-0.384 0.279-0.575 0.618-0.575 1.025z"></path>
<path fill="#fff" style="fill: var(--color2, #fff)" d="M44 13.777l-4.685 10.768h-1.449l1.739-3.768-3.081-7h1.525l2.227 5.369h0.031l2.166-5.369h1.528z"></path>
<path fill="#fff" style="fill: var(--color2, #fff)" d="M18.301 15.874c0-0.428-0.036-0.854-0.108-1.276h-5.918v2.417h3.389c-0.069 0.386-0.216 0.754-0.431 1.082s-0.495 0.608-0.822 0.825v1.569h2.023c1.184-1.092 1.867-2.707 1.867-4.617z"></path>
<path fill="#fff" style="fill: var(--color2, #fff)" d="M12.275 22.006c1.693 0 3.119-0.556 4.159-1.515l-2.023-1.569c-0.563 0.382-1.288 0.6-2.136 0.6-1.637 0-3.026-1.103-3.523-2.59h-2.084v1.617c0.522 1.039 1.323 1.913 2.313 2.524s2.13 0.934 3.294 0.934z"></path>
<path fill="#fff" style="fill: var(--color2, #fff)" d="M8.752 16.932c-0.263-0.779-0.263-1.623 0-2.402v-1.617h-2.084c-0.439 0.874-0.668 1.839-0.668 2.818s0.229 1.943 0.668 2.818l2.084-1.617z"></path>
<path fill="#fff" style="fill: var(--color2, #fff)" d="M12.275 11.94c0.895-0.015 1.76 0.323 2.407 0.941l1.791-1.791c-1.136-1.067-2.64-1.652-4.198-1.634-1.163 0-2.303 0.323-3.293 0.934s-1.791 1.484-2.313 2.524l2.084 1.617c0.497-1.487 1.886-2.59 3.523-2.59z"></path>
</symbol>
<symbol id="icon-MasterCard" viewBox="0 0 50 32">
<path fill="#0f3560" style="fill: var(--color17, #0f3560)" d="M3 0h44c1.657 0 3 1.343 3 3v26c0 1.657-1.343 3-3 3h-44c-1.657 0-3-1.343-3-3v-26c0-1.657 1.343-3 3-3z"></path>
<path fill="#ff5f00" style="fill: var(--color18, #ff5f00)" d="M29.363 23.865h-8.749v-15.724h8.749v15.724z"></path>
<path fill="#eb001b" style="fill: var(--color19, #eb001b)" d="M21.175 16.002c0-3.19 1.493-6.031 3.819-7.862-1.701-1.339-3.847-2.138-6.18-2.138-5.522 0-9.999 4.477-9.999 10s4.476 10 9.999 10c2.333 0 4.479-0.799 6.18-2.138-2.326-1.831-3.819-4.672-3.819-7.862z"></path>
<path fill="#f79e1b" style="fill: var(--color20, #f79e1b)" d="M41.163 16.002c0 5.523-4.476 10-9.999 10-2.333 0-4.479-0.799-6.18-2.138 2.326-1.831 3.82-4.672 3.82-7.862s-1.493-6.031-3.82-7.862c1.701-1.339 3.848-2.138 6.18-2.138 5.522 0 9.999 4.477 9.999 10z"></path>
<path fill="#fff" style="fill: var(--color2, #fff)" d="M16.339 16.065c0-0.437 0.286-0.796 0.754-0.796 0.447 0 0.749 0.343 0.749 0.796s-0.302 0.796-0.749 0.796c-0.468 0-0.754-0.359-0.754-0.796zM18.351 16.065v-1.243h-0.54v0.302c-0.171-0.224-0.431-0.364-0.785-0.364-0.697 0-1.243 0.546-1.243 1.305s0.546 1.305 1.243 1.305c0.354 0 0.613-0.14 0.785-0.364v0.302h0.54v-1.242zM36.611 16.065c0-0.437 0.286-0.796 0.754-0.796 0.447 0 0.749 0.343 0.749 0.796s-0.301 0.796-0.749 0.796c-0.468 0-0.754-0.359-0.754-0.796zM38.624 16.065v-2.241h-0.541v1.3c-0.171-0.224-0.431-0.364-0.785-0.364-0.697 0-1.243 0.546-1.243 1.305s0.546 1.305 1.243 1.305c0.353 0 0.614-0.14 0.785-0.364v0.302h0.541v-1.242zM25.059 15.244c0.348 0 0.572 0.218 0.629 0.603h-1.29c0.058-0.359 0.276-0.603 0.66-0.603zM25.069 14.76c-0.728 0-1.238 0.53-1.238 1.305 0 0.79 0.53 1.305 1.274 1.305 0.374 0 0.717-0.093 1.019-0.348l-0.265-0.401c-0.208 0.166-0.474 0.26-0.723 0.26-0.348 0-0.665-0.161-0.743-0.609h1.845c0.005-0.067 0.011-0.135 0.011-0.208-0.005-0.775-0.484-1.305-1.18-1.305zM31.594 16.065c0-0.437 0.286-0.796 0.754-0.796 0.447 0 0.749 0.343 0.749 0.796s-0.302 0.796-0.749 0.796c-0.468 0-0.754-0.359-0.754-0.796zM33.606 16.065v-1.243h-0.54v0.302c-0.172-0.224-0.431-0.364-0.785-0.364-0.697 0-1.243 0.546-1.243 1.305s0.546 1.305 1.243 1.305c0.353 0 0.613-0.14 0.785-0.364v0.302h0.54v-1.242zM28.542 16.065c0 0.754 0.525 1.305 1.326 1.305 0.374 0 0.624-0.083 0.894-0.296l-0.259-0.437c-0.203 0.146-0.416 0.224-0.65 0.224-0.431-0.005-0.749-0.317-0.749-0.796s0.317-0.79 0.749-0.796c0.234 0 0.448 0.078 0.65 0.224l0.259-0.437c-0.27-0.213-0.52-0.296-0.894-0.296-0.801 0-1.326 0.551-1.326 1.305zM35.509 14.76c-0.312 0-0.515 0.146-0.655 0.364v-0.302h-0.536v2.485h0.541v-1.393c0-0.411 0.177-0.64 0.53-0.64 0.109 0 0.224 0.015 0.338 0.063l0.167-0.509c-0.12-0.047-0.276-0.068-0.385-0.068zM21.024 15.020c-0.26-0.171-0.618-0.26-1.013-0.26-0.63 0-1.035 0.302-1.035 0.796 0 0.405 0.302 0.655 0.858 0.733l0.255 0.036c0.296 0.042 0.436 0.12 0.436 0.26 0 0.192-0.198 0.302-0.567 0.302-0.374 0-0.645-0.12-0.827-0.26l-0.255 0.421c0.296 0.218 0.671 0.323 1.076 0.323 0.718 0 1.134-0.338 1.134-0.811 0-0.437-0.327-0.665-0.868-0.743l-0.255-0.037c-0.234-0.031-0.421-0.077-0.421-0.244 0-0.182 0.177-0.291 0.473-0.291 0.317 0 0.624 0.12 0.775 0.213l0.234-0.437zM27.996 14.76c-0.312 0-0.515 0.146-0.655 0.364v-0.302h-0.536v2.485h0.54v-1.393c0-0.411 0.177-0.64 0.53-0.64 0.11 0 0.224 0.015 0.338 0.063l0.167-0.509c-0.12-0.047-0.276-0.068-0.385-0.068zM23.385 14.822h-0.884v-0.754h-0.546v0.754h-0.504v0.494h0.504v1.134c0 0.577 0.224 0.92 0.863 0.92 0.235 0 0.505-0.073 0.676-0.192l-0.156-0.463c-0.161 0.093-0.338 0.14-0.478 0.14-0.27 0-0.358-0.167-0.358-0.416v-1.123h0.884v-0.494zM15.305 17.308v-1.56c0-0.587-0.374-0.982-0.978-0.988-0.317-0.005-0.645 0.094-0.874 0.442-0.171-0.275-0.441-0.442-0.821-0.442-0.265 0-0.525 0.078-0.728 0.369v-0.306h-0.541v2.485h0.546v-1.378c0-0.431 0.239-0.661 0.609-0.661 0.359 0 0.54 0.234 0.54 0.655v1.383h0.546v-1.378c0-0.431 0.249-0.661 0.608-0.661 0.369 0 0.546 0.234 0.546 0.655v1.383h0.546z"></path>
</symbol>
<symbol id="icon-monobank" viewBox="0 0 50 32">
<path fill="#000" style="fill: var(--color6, #000)" d="M3 0h44c1.657 0 3 1.343 3 3v26c0 1.657-1.343 3-3 3h-44c-1.657 0-3-1.343-3-3v-26c0-1.657 1.343-3 3-3z"></path>
<path fill="#fff" style="fill: var(--color2, #fff)" d="M41.399 18.184h0.728v2.317h0.041l0.947-1.113 0.672-0.002-1.039 1.216 1.252 1.521h-0.839l-1.023-1.416h-0.011v1.416h-0.728v-3.94zM6.769 18.36v2.161c0 0.736 0.218 1.138 0.829 1.138 0.584 0 0.818-0.488 0.818-1.096v-2.203h0.688v2.338c0 0.951-0.623 1.489-1.528 1.489-1.037 0-1.576-0.501-1.576-1.527v-2.3h0.769zM10.713 19.752c0.246-0.258 0.59-0.381 0.934-0.381 0.638 0 0.976 0.343 0.976 1.020v1.731h-0.724v-1.649c0-0.377-0.169-0.624-0.546-0.624-0.355 0-0.633 0.231-0.633 0.672v1.601h-0.725v-2.687h0.719v0.317zM13.476 22.122h0.726v-2.687h-0.726v2.687zM13.405 18.629c0-0.204 0.174-0.414 0.421-0.414 0.251 0 0.446 0.204 0.446 0.414 0 0.231-0.168 0.451-0.436 0.451-0.257 0-0.431-0.221-0.431-0.451zM15.806 22.122l-1.161-2.699h0.769c0.235 0.618 0.479 1.2 0.708 1.947h0.011c0.247-0.747 0.479-1.328 0.729-1.947h0.681l-1.229 2.699h-0.507zM19.701 20.456c0.028-0.41-0.119-0.688-0.479-0.688-0.416 0-0.603 0.328-0.595 0.688h1.074zM18.616 20.843c-0.016 0.506 0.344 0.881 0.796 0.881 0.269 0 0.551-0.091 0.732-0.215l0.207 0.377c-0.371 0.215-0.759 0.301-1.070 0.301-0.824 0-1.44-0.576-1.44-1.462 0-0.828 0.61-1.354 1.391-1.354 0.851 0 1.206 0.671 1.153 1.472h-1.769zM21.809 19.907h0.010l0.148-0.209c0.081-0.119 0.245-0.327 0.469-0.327 0.164 0 0.339 0.086 0.492 0.241l-0.274 0.494c-0.12-0.060-0.197-0.091-0.343-0.091-0.251 0-0.497 0.199-0.497 0.779v1.328h-0.728v-2.687h0.723v0.473zM24.864 19.939c-0.163-0.118-0.333-0.172-0.465-0.172-0.163 0-0.327 0.091-0.327 0.274 0 0.215 0.263 0.339 0.568 0.558 0.389 0.286 0.502 0.565 0.502 0.811 0 0.378-0.421 0.775-1.020 0.775-0.377 0-0.655-0.13-0.911-0.307l0.229-0.371c0.163 0.13 0.397 0.258 0.593 0.258 0.209 0 0.394-0.108 0.394-0.333 0-0.253-0.284-0.392-0.545-0.575-0.311-0.209-0.523-0.414-0.523-0.746 0-0.425 0.414-0.742 0.948-0.742 0.301 0 0.595 0.075 0.793 0.247l-0.235 0.322zM26.932 20.692c-0.354 0.113-0.534 0.312-0.534 0.618 0 0.237 0.153 0.398 0.329 0.398 0.288 0 0.665-0.355 0.611-1.145l-0.405 0.129zM27.162 21.864c-0.197 0.161-0.448 0.323-0.698 0.323-0.426 0-0.782-0.323-0.782-0.817 0-0.511 0.378-0.796 1.011-0.979l0.644-0.188c-0.038-0.247-0.262-0.402-0.496-0.402-0.312 0-0.531 0.113-0.721 0.274l-0.235-0.339c0.339-0.274 0.671-0.365 1.047-0.365 0.503 0 1.12 0.16 1.12 1v1.096c0 0.215 0.026 0.468 0.115 0.656h-0.769c-0.056-0.092-0.071-0.247-0.071-0.392l-0.164 0.134zM28.865 22.122h0.726v-3.95h-0.726v3.95zM36.019 20.692c-0.355 0.113-0.535 0.312-0.535 0.618 0 0.237 0.152 0.398 0.328 0.398 0.288 0 0.665-0.355 0.612-1.145l-0.404 0.129zM36.247 21.864c-0.195 0.161-0.447 0.323-0.698 0.323-0.425 0-0.781-0.323-0.781-0.817 0-0.511 0.377-0.796 1.011-0.979l0.645-0.188c-0.040-0.247-0.263-0.402-0.499-0.402-0.31 0-0.529 0.113-0.72 0.274l-0.235-0.339c0.338-0.274 0.672-0.365 1.049-0.365 0.501 0 1.117 0.16 1.117 1v1.096c0 0.215 0.027 0.468 0.114 0.656h-0.768c-0.054-0.092-0.072-0.247-0.072-0.392l-0.163 0.134zM38.67 19.752c0.246-0.258 0.59-0.381 0.934-0.381 0.638 0 0.977 0.343 0.977 1.020v1.731h-0.726v-1.649c0-0.377-0.169-0.624-0.546-0.624-0.355 0-0.633 0.231-0.633 0.672v1.601h-0.725v-2.687h0.72v0.317zM32.239 21.669h0.393c0.426 0 0.749-0.22 0.749-0.639 0-0.441-0.333-0.629-0.753-0.629h-0.388v1.268zM32.239 19.939h0.241c0.443 0 0.743-0.279 0.743-0.629 0-0.333-0.252-0.477-0.585-0.477h-0.4v1.107h0zM31.47 22.132v-3.762h1.381c0.643 0 1.097 0.29 1.097 0.8 0 0.602-0.497 0.849-0.764 0.919v0.011c0.475 0.022 1.004 0.344 1.004 0.919 0 0.65-0.552 1.113-1.451 1.113h-1.267z"></path>
<path fill="#fff" style="fill: var(--color2, #fff)" d="M44 16.224v0.292h-38v-0.292h38z"></path>
<path fill="#fff" style="fill: var(--color2, #fff)" d="M13.43 14.484v-2.444c0-0.693-0.371-1.022-0.994-1.022-0.518 0-0.966 0.308-1.162 0.616-0.126-0.385-0.441-0.616-0.938-0.616-0.518 0-0.966 0.322-1.106 0.525v-0.441h-0.889v3.382h0.889v-2.276c0.133-0.189 0.392-0.399 0.7-0.399 0.364 0 0.504 0.224 0.504 0.539v2.136h0.896v-2.283c0.126-0.182 0.385-0.392 0.7-0.392 0.364 0 0.504 0.224 0.504 0.539v2.136h0.896zM15.873 14.568c-1.113 0-1.785-0.812-1.785-1.778 0-0.959 0.672-1.771 1.785-1.771 1.12 0 1.792 0.812 1.792 1.771 0 0.966-0.672 1.778-1.793 1.778zM15.873 13.776c0.553 0 0.868-0.455 0.868-0.987 0-0.525-0.315-0.98-0.868-0.98s-0.861 0.455-0.861 0.98c0 0.532 0.308 0.987 0.861 0.987zM21.495 14.484v-2.388c0-0.658-0.357-1.078-1.099-1.078-0.553 0-0.966 0.266-1.183 0.525v-0.441h-0.889v3.382h0.889v-2.276c0.147-0.203 0.42-0.399 0.77-0.399 0.378 0 0.623 0.161 0.623 0.63v2.045h0.889zM23.946 14.568c-1.113 0-1.785-0.812-1.785-1.778 0-0.959 0.672-1.771 1.785-1.771 1.12 0 1.793 0.812 1.793 1.771 0 0.966-0.672 1.778-1.793 1.778zM23.946 13.776c0.553 0 0.868-0.455 0.868-0.987 0-0.525-0.315-0.98-0.868-0.98s-0.861 0.455-0.861 0.98c0 0.532 0.308 0.987 0.861 0.987zM27.286 13.398c0.147 0.217 0.476 0.378 0.763 0.378 0.518 0 0.861-0.392 0.861-0.98s-0.343-0.987-0.861-0.987c-0.287 0-0.616 0.168-0.763 0.392v1.197zM27.286 14.484h-0.889v-4.67h0.889v1.722c0.266-0.343 0.644-0.518 1.043-0.518 0.861 0 1.498 0.672 1.498 1.778 0 1.127-0.644 1.771-1.498 1.771-0.406 0-0.777-0.182-1.043-0.518v0.434zM33.419 14.484h-0.889v-0.35c-0.231 0.273-0.63 0.434-1.071 0.434-0.539 0-1.176-0.364-1.176-1.12 0-0.791 0.637-1.092 1.176-1.092 0.448 0 0.847 0.147 1.071 0.413v-0.455c0-0.343-0.294-0.567-0.742-0.567-0.364 0-0.7 0.133-0.987 0.399l-0.336-0.595c0.413-0.364 0.945-0.532 1.477-0.532 0.77 0 1.477 0.308 1.477 1.281v2.184zM31.816 13.966c0.287 0 0.567-0.098 0.714-0.294v-0.42c-0.147-0.196-0.427-0.294-0.714-0.294-0.35 0-0.637 0.182-0.637 0.511 0 0.315 0.287 0.497 0.637 0.497zM37.473 14.484v-2.388c0-0.658-0.357-1.078-1.099-1.078-0.553 0-0.966 0.266-1.183 0.525v-0.441h-0.889v3.382h0.889v-2.276c0.147-0.203 0.42-0.399 0.77-0.399 0.378 0 0.623 0.161 0.623 0.63v2.045h0.889zM41.66 14.484l-1.379-1.848 1.337-1.533h-1.092l-1.281 1.505v-2.794h-0.889v4.67h0.889v-0.868l0.406-0.434 0.896 1.302h1.113z"></path>
</symbol>
<symbol id="icon-Payoneer" viewBox="0 0 50 32">
<path fill="#000" style="fill: var(--color6, #000)" d="M3 0h44c1.657 0 3 1.343 3 3v26c0 1.657-1.343 3-3 3h-44c-1.657 0-3-1.343-3-3v-26c0-1.657 1.343-3 3-3z"></path>
<path fill="#fff" style="fill: var(--color2, #fff)" d="M8.769 16.276c0.182 0.038 0.345 0.056 0.585 0.056 0.94 0 1.573-0.595 1.573-1.352 0-0.681-0.489-0.926-1.122-0.926-0.279 0-0.49 0.019-0.624 0.056l-0.413 2.165zM8.241 13.326c0.393-0.095 0.979-0.151 1.554-0.151 0.605 0 1.238 0.123 1.66 0.454 0.374 0.284 0.595 0.699 0.595 1.267 0 0.756-0.365 1.371-0.825 1.73-0.518 0.407-1.257 0.605-2.025 0.605-0.231 0-0.431-0.029-0.604-0.047l-0.47 2.411h-1.093l1.209-6.268z"></path>
<path fill="#fff" style="fill: var(--color2, #fff)" d="M15.015 15.783c-0.115-0.029-0.259-0.047-0.46-0.047-1.027 0-1.833 1.144-1.833 2.194 0 0.481 0.182 0.879 0.672 0.879 0.527 0 1.161-0.642 1.382-1.815l0.239-1.21zM14.564 19.594c0-0.275 0.038-0.643 0.077-1.031h-0.019c-0.46 0.842-1.085 1.135-1.679 1.135-0.835 0-1.382-0.643-1.382-1.569 0-1.569 1.113-3.243 3.292-3.243 0.508 0 1.056 0.094 1.42 0.208l-0.489 2.401c-0.135 0.68-0.211 1.55-0.192 2.099h-1.027z"></path>
<path fill="#fff" style="fill: var(--color2, #fff)" d="M22.623 17.769c0 0.633 0.336 1.078 0.912 1.078 0.835 0 1.392-1.135 1.392-2.052 0-0.473-0.221-1.059-0.892-1.059-0.892 0-1.411 1.173-1.411 2.033zM26.077 16.786c0 1.569-1.104 2.911-2.696 2.911-1.181 0-1.909-0.803-1.909-1.9 0-1.559 1.103-2.911 2.696-2.911 1.257 0 1.909 0.889 1.909 1.901z"></path>
<path fill="#fff" style="fill: var(--color2, #fff)" d="M26.287 19.594l0.605-3.177c0.115-0.549 0.182-1.031 0.24-1.427h0.998l-0.106 0.822h0.019c0.431-0.615 1.027-0.927 1.679-0.927 0.671 0 1.19 0.398 1.19 1.267 0 0.208-0.038 0.529-0.086 0.756l-0.509 2.685h-1.123l0.498-2.6c0.030-0.17 0.058-0.369 0.058-0.548 0-0.388-0.144-0.662-0.585-0.662-0.509 0-1.161 0.605-1.363 1.683l-0.403 2.127h-1.113z"></path>
<path fill="#fff" style="fill: var(--color2, #fff)" d="M33.886 15.708c-0.701 0-1.161 0.614-1.295 1.173 1.151 0.009 1.891-0.142 1.891-0.7 0-0.293-0.24-0.473-0.595-0.473zM34.951 19.329c-0.461 0.236-1.084 0.369-1.651 0.369-1.294 0-1.918-0.784-1.918-1.909 0-1.39 1.036-2.902 2.648-2.902 0.921 0 1.506 0.52 1.506 1.295 0 1.181-1.257 1.559-3.060 1.522-0.020 0.16 0.019 0.472 0.125 0.652 0.182 0.312 0.517 0.473 0.959 0.473 0.528 0 0.95-0.132 1.287-0.302l0.105 0.803z"></path>
<path fill="#fff" style="fill: var(--color2, #fff)" d="M38.231 15.708c-0.7 0-1.161 0.614-1.295 1.173 1.151 0.009 1.891-0.142 1.891-0.7 0-0.293-0.24-0.473-0.595-0.473zM39.296 19.329c-0.46 0.236-1.084 0.369-1.65 0.369-1.295 0-1.919-0.784-1.919-1.909 0-1.39 1.036-2.902 2.648-2.902 0.921 0 1.507 0.52 1.507 1.295 0 1.181-1.258 1.559-3.061 1.522-0.020 0.16 0.019 0.472 0.125 0.652 0.182 0.312 0.518 0.473 0.959 0.473 0.528 0 0.95-0.132 1.287-0.302l0.105 0.803z"></path>
<path fill="#fff" style="fill: var(--color2, #fff)" d="M39.949 19.594l0.547-2.836c0.125-0.652 0.192-1.361 0.239-1.768h0.969c-0.029 0.312-0.057 0.633-0.105 0.964h0.029c0.318-0.615 0.825-1.069 1.459-1.069 0.087 0 0.173 0.010 0.25 0.010l-0.221 1.078c-0.057-0.010-0.134-0.010-0.211-0.010-0.797 0-1.305 0.794-1.487 1.777l-0.355 1.853h-1.113z"></path>
<path fill="#fff" style="fill: var(--color2, #fff)" d="M44.185 15.411h0.082c0.084 0 0.139-0.046 0.139-0.116 0-0.078-0.058-0.113-0.142-0.113-0.039 0-0.066 0.003-0.079 0.006v0.223zM44.105 15.133c0.041-0.007 0.099-0.012 0.153-0.012 0.085 0 0.141 0.017 0.179 0.050 0.031 0.027 0.049 0.069 0.049 0.117 0 0.079-0.051 0.133-0.116 0.154v0.003c0.047 0.016 0.075 0.060 0.091 0.123 0.020 0.084 0.035 0.143 0.048 0.167h-0.083c-0.010-0.019-0.024-0.070-0.040-0.146-0.019-0.084-0.053-0.115-0.125-0.118h-0.075v0.264h-0.080v-0.602z"></path>
<path fill="#fff" style="fill: var(--color2, #fff)" d="M44.289 14.885c-0.305 0-0.553 0.244-0.553 0.545s0.248 0.545 0.553 0.545c0.305 0 0.553-0.244 0.553-0.545s-0.248-0.545-0.553-0.545zM44.289 14.969c0.258 0 0.467 0.206 0.467 0.461s-0.209 0.461-0.467 0.461c-0.258 0-0.468-0.206-0.468-0.461s0.209-0.461 0.468-0.461z"></path>
<path fill="#ff4600" style="fill: var(--color21, #ff4600)" d="M16.653 10.557c0.047 1.039 0.958 5.003 0.958 5.003 0.335 0.803 0.623 0 0.623 0 1.102-3.257-1.15-5.144-1.15-5.144-0.575-0.331-0.43 0.141-0.43 0.141zM29.731 9.991c0 0 1.103 0.755 0 0.897 0 0-4.12 0.472-7.186 3.305 0 0-4.6 3.963-6.324 8.306 0 0-0.575 0-0.383-0.849 0.191-0.849 1.341-4.579 6.467-9.156 0 0 4.936-4.437 7.427-2.502z"></path>
</symbol>
<symbol id="icon-PayPal" viewBox="0 0 50 32">
<path fill="#082069" style="fill: var(--color22, #082069)" d="M3 0h44c1.657 0 3 1.343 3 3v26c0 1.657-1.343 3-3 3h-44c-1.657 0-3-1.343-3-3v-26c0-1.657 1.343-3 3-3z"></path>
<path fill="#fff" style="fill: var(--color2, #fff)" d="M14.874 20.9h-2.073c-0.142 0-0.262 0.103-0.285 0.243l-0.838 5.315c-0.017 0.105 0.065 0.199 0.171 0.199h0.989c0.142 0 0.262-0.103 0.285-0.243l0.226-1.433c0.022-0.14 0.143-0.243 0.284-0.243h0.656c1.365 0 2.153-0.661 2.359-1.97 0.093-0.573 0.004-1.023-0.264-1.338-0.295-0.346-0.817-0.529-1.511-0.529zM15.113 22.842c-0.113 0.744-0.682 0.744-1.231 0.744h-0.313l0.219-1.389c0.013-0.084 0.086-0.146 0.171-0.146h0.143c0.374 0 0.727 0 0.91 0.213 0.109 0.127 0.142 0.316 0.101 0.578z"></path>
<path fill="#fff" style="fill: var(--color2, #fff)" d="M21.070 22.817h-0.992c-0.085 0-0.158 0.062-0.171 0.146l-0.044 0.278-0.069-0.101c-0.215-0.312-0.694-0.416-1.172-0.416-1.097 0-2.034 0.831-2.216 1.996-0.095 0.581 0.040 1.137 0.37 1.525 0.302 0.356 0.735 0.505 1.25 0.505 0.884 0 1.374-0.568 1.374-0.568l-0.044 0.276c-0.017 0.105 0.064 0.2 0.17 0.2h0.894c0.142 0 0.262-0.103 0.285-0.243l0.537-3.397c0.017-0.105-0.064-0.199-0.17-0.199zM19.686 24.749c-0.096 0.567-0.546 0.948-1.12 0.948-0.288 0-0.519-0.092-0.666-0.268-0.147-0.174-0.202-0.422-0.156-0.697 0.089-0.562 0.547-0.955 1.112-0.955 0.282 0 0.511 0.094 0.662 0.27 0.151 0.178 0.211 0.428 0.168 0.702z"></path>
<path fill="#fff" style="fill: var(--color2, #fff)" d="M26.356 22.817h-0.997c-0.095 0-0.185 0.047-0.238 0.126l-1.376 2.026-0.583-1.947c-0.037-0.122-0.149-0.206-0.276-0.206h-0.98c-0.119 0-0.202 0.116-0.164 0.229l1.099 3.224-1.033 1.458c-0.081 0.115 0.001 0.273 0.141 0.273h0.996c0.095 0 0.183-0.046 0.237-0.124l3.317-4.788c0.079-0.114-0.002-0.271-0.142-0.271z"></path>
<path fill="#fff" style="fill: var(--color2, #fff)" d="M29.658 20.899h-2.073c-0.142 0-0.262 0.103-0.284 0.243l-0.838 5.315c-0.017 0.105 0.065 0.199 0.17 0.199h1.064c0.099 0 0.183-0.072 0.199-0.17l0.238-1.507c0.022-0.14 0.143-0.243 0.284-0.243h0.656c1.366 0 2.153-0.661 2.359-1.97 0.093-0.573 0.004-1.023-0.265-1.338-0.294-0.346-0.817-0.529-1.51-0.529zM29.897 22.841c-0.113 0.744-0.681 0.744-1.231 0.744h-0.313l0.22-1.389c0.013-0.084 0.085-0.146 0.17-0.146h0.143c0.374 0 0.727 0 0.91 0.213 0.109 0.127 0.142 0.316 0.1 0.578z"></path>
<path fill="#fff" style="fill: var(--color2, #fff)" d="M35.853 22.817h-0.992c-0.085 0-0.158 0.062-0.17 0.146l-0.044 0.278-0.070-0.101c-0.215-0.312-0.694-0.416-1.172-0.416-1.097 0-2.033 0.831-2.216 1.996-0.095 0.581 0.040 1.137 0.369 1.525 0.303 0.356 0.735 0.505 1.25 0.505 0.884 0 1.374-0.568 1.374-0.568l-0.044 0.276c-0.017 0.105 0.065 0.2 0.171 0.2h0.894c0.142 0 0.262-0.103 0.284-0.243l0.537-3.397c0.016-0.105-0.065-0.199-0.171-0.199zM34.47 24.749c-0.095 0.567-0.546 0.948-1.12 0.948-0.288 0-0.519-0.092-0.666-0.268-0.147-0.174-0.202-0.422-0.156-0.697 0.090-0.562 0.547-0.955 1.112-0.955 0.282 0 0.511 0.094 0.662 0.27 0.152 0.178 0.212 0.428 0.168 0.702z"></path>
<path fill="#fff" style="fill: var(--color2, #fff)" d="M37.024 21.046l-0.851 5.412c-0.017 0.105 0.065 0.199 0.17 0.199h0.855c0.142 0 0.263-0.103 0.285-0.243l0.839-5.315c0.017-0.105-0.065-0.2-0.17-0.2h-0.958c-0.084 0-0.157 0.062-0.17 0.146z"></path>
<path fill="#fff" style="fill: var(--color2, #fff)" opacity="0.68" d="M30.116 7.424c0.165-1.048-0.001-1.762-0.568-2.408-0.624-0.711-1.752-1.016-3.195-1.016h-4.188c-0.295 0-0.546 0.215-0.592 0.506l-1.744 11.059c-0.034 0.218 0.134 0.415 0.355 0.415h2.586l-0.178 1.132c-0.030 0.191 0.117 0.363 0.311 0.363h2.18c0.258 0 0.477-0.188 0.518-0.442l0.021-0.111 0.41-2.604 0.026-0.144c0.040-0.255 0.26-0.443 0.518-0.443h0.326c2.111 0 3.765-0.858 4.248-3.338 0.202-1.037 0.098-1.902-0.436-2.51-0.161-0.184-0.362-0.336-0.597-0.46z"></path>
<path fill="#fff" style="fill: var(--color2, #fff)" opacity="0.7" d="M30.116 7.424c0.165-1.048-0.001-1.762-0.568-2.408-0.624-0.711-1.752-1.016-3.195-1.016h-4.188c-0.295 0-0.546 0.215-0.592 0.506l-1.744 11.059c-0.034 0.218 0.134 0.415 0.355 0.415h2.586l0.649-4.119-0.020 0.129c0.046-0.291 0.295-0.506 0.59-0.506h1.229c2.414 0 4.304-0.981 4.856-3.816 0.017-0.084 0.030-0.165 0.043-0.245z"></path>
<path fill="#fff" style="fill: var(--color2, #fff)" d="M24.117 7.438c0.028-0.175 0.14-0.319 0.291-0.391 0.069-0.033 0.146-0.051 0.226-0.051h3.283c0.389 0 0.752 0.026 1.083 0.079 0.095 0.015 0.187 0.033 0.277 0.053s0.177 0.042 0.261 0.067c0.042 0.012 0.083 0.025 0.124 0.039 0.163 0.054 0.314 0.118 0.454 0.192 0.165-1.048-0.001-1.762-0.568-2.408-0.625-0.711-1.752-1.016-3.195-1.016h-4.188c-0.295 0-0.546 0.215-0.592 0.506l-1.744 11.059c-0.034 0.218 0.134 0.415 0.355 0.415h2.586l1.347-8.543z"></path>
</symbol>
<symbol id="icon-Western-Union" viewBox="0 0 50 32">
<path fill="#0d0d0d" style="fill: var(--color23, #0d0d0d)" d="M3 0h44c1.657 0 3 1.343 3 3v26c0 1.657-1.343 3-3 3h-44c-1.657 0-3-1.343-3-3v-26c0-1.657 1.343-3 3-3z"></path>
<path fill="#fddf12" style="fill: var(--color24, #fddf12)" d="M4.563 13.903h1.015l0.242 1.802h0.008l0.267-1.802h1.173l0.266 1.802h0.008l0.243-1.802h1.015l-0.618 2.864h-1.23l-0.265-1.855h-0.008l-0.266 1.855h-1.23l-0.619-2.864z"></path>
<path fill="#fddf12" style="fill: var(--color24, #fddf12)" d="M9.461 13.903h2.178v0.747h-1.091v0.305h1.008v0.746h-1.008v0.321h1.127v0.745h-2.214v-2.864z"></path>
<path fill="#fddf12" style="fill: var(--color24, #fddf12)" d="M13.963 14.716c-0.004-0.178-0.103-0.238-0.25-0.238-0.182 0-0.262 0.079-0.262 0.167 0 0.102 0.068 0.146 0.186 0.182 0.218 0.064 0.619 0.143 0.908 0.266 0.362 0.15 0.52 0.409 0.52 0.753 0 0.702-0.571 0.996-1.381 0.996-0.69 0-1.324-0.214-1.324-0.96h1.087c0 0.080 0.016 0.159 0.059 0.219 0.043 0.055 0.115 0.090 0.222 0.090 0.166 0 0.274-0.107 0.274-0.234 0-0.107-0.083-0.162-0.191-0.194l-0.805-0.238c-0.44-0.131-0.594-0.398-0.594-0.766 0-0.595 0.48-0.932 1.316-0.932 0.714 0 1.25 0.223 1.25 0.889h-1.015z"></path>
<path fill="#fddf12" style="fill: var(--color24, #fddf12)" d="M16.386 14.674h-0.706v-0.771h2.546v0.771h-0.706v2.093h-1.134v-2.093z"></path>
<path fill="#fddf12" style="fill: var(--color24, #fddf12)" d="M18.964 13.903h2.178v0.747h-1.090v0.305h1.007v0.746h-1.007v0.321h1.127v0.745h-2.214v-2.864z"></path>
<path fill="#fddf12" style="fill: var(--color24, #fddf12)" d="M21.987 13.903h1.694c0.615 0 0.976 0.187 0.976 0.727 0 0.329-0.139 0.578-0.568 0.682v0.008c0.278 0.024 0.429 0.146 0.484 0.365 0.063 0.245 0.056 0.65 0.186 1.082h-1.11c-0.067-0.214-0.103-0.575-0.143-0.82-0.023-0.143-0.095-0.198-0.277-0.198h-0.131v1.018h-1.11v-2.864zM23.193 15.097c0.218 0 0.377-0.075 0.377-0.289 0-0.21-0.147-0.254-0.37-0.254h-0.103v0.543h0.095z"></path>
<path fill="#fddf12" style="fill: var(--color24, #fddf12)" d="M25.519 13.903h1.36l0.606 1.734h0.009v-1.734h0.921v2.864h-1.36l-0.608-1.745h-0.008v1.745h-0.919v-2.864z"></path>
<path fill="#fddf12" style="fill: var(--color24, #fddf12)" d="M15.042 19.236c0 0.691-0.496 1.036-1.36 1.036s-1.36-0.346-1.36-1.036v-1.903h1.134v1.856c0 0.226 0.107 0.314 0.226 0.314s0.226-0.088 0.226-0.314v-1.856h1.134v1.903z"></path>
<path fill="#fddf12" style="fill: var(--color24, #fddf12)" d="M15.951 17.333h1.36l0.606 1.734h0.008v-1.734h0.92v2.864h-1.36l-0.606-1.746h-0.009v1.746h-0.919v-2.864z"></path>
<path fill="#fddf12" style="fill: var(--color24, #fddf12)" d="M19.775 17.333h1.133v2.864h-1.133v-2.864z"></path>
<path fill="#fddf12" style="fill: var(--color24, #fddf12)" d="M23.213 17.258c0.988 0 1.48 0.614 1.48 1.507s-0.492 1.508-1.48 1.508c-0.987 0-1.479-0.615-1.479-1.508s0.491-1.507 1.479-1.507zM23.213 19.527c0.176 0 0.305-0.1 0.305-0.762 0-0.647-0.122-0.762-0.305-0.762-0.182 0-0.305 0.115-0.305 0.762 0 0.662 0.132 0.762 0.305 0.762z"></path>
<path fill="#fddf12" style="fill: var(--color24, #fddf12)" d="M25.519 17.333h1.36l0.606 1.734h0.009v-1.734h0.921v2.864h-1.36l-0.608-1.746h-0.008v1.746h-0.919v-2.864z"></path>
<path fill="#fddf12" style="fill: var(--color24, #fddf12)" d="M39.092 13.862h-0.483l-0.541 4.020h-0.017l-0.593-4.020h-2.619l-0.594 4.020h-0.017l-0.54-4.020h-2.264l1.38 6.388h2.744l0.592-4.138h0.018l0.592 4.138h2.744l0.138-0.639c-0.351-0.373-0.539-0.872-0.539-1.503v-4.246z"></path>
<path fill="#fff" style="fill: var(--color2, #fff)" d="M39.092 13.862v4.246c0 0.631 0.188 1.13 0.539 1.503l1.241-5.749h-1.78z"></path>
<path fill="#fddf12" style="fill: var(--color24, #fddf12)" d="M42.63 13.862v4.141c0 0.504-0.239 0.7-0.504 0.7s-0.504-0.196-0.504-0.7v-4.141h-0.54l-1.275 5.908c0.517 0.43 1.301 0.65 2.319 0.65 1.928 0 3.035-0.771 3.035-2.311v-4.246h-2.53z"></path>
<path fill="#fddf12" style="fill: var(--color24, #fddf12)" d="M29.763 13.862h-0.377l1.356 6.388h0.377l-1.357-6.388z"></path>
<path fill="#fddf12" style="fill: var(--color24, #fddf12)" d="M31.772 20.25h0.377l-1.356-6.388h-0.377l1.356 6.388z"></path>
<path fill="#fddf12" style="fill: var(--color24, #fddf12)" d="M45.925 14.167c-0.003-0.043-0.026-0.064-0.070-0.064-0.034 0-0.068 0.018-0.068 0.055 0 0.046 0.041 0.051 0.077 0.060 0.065 0.017 0.16 0.035 0.16 0.12 0 0.105-0.092 0.141-0.182 0.141-0.097 0-0.165-0.037-0.162-0.144h0.093c-0.003 0.047 0.024 0.079 0.071 0.079 0.036 0 0.084-0.011 0.084-0.056 0-0.050-0.060-0.054-0.097-0.063-0.059-0.015-0.14-0.041-0.14-0.117 0-0.097 0.089-0.14 0.176-0.14 0.082 0 0.146 0.044 0.146 0.13h-0.087z"></path>
<path fill="#fddf12" style="fill: var(--color24, #fddf12)" d="M46.358 14.47h-0.076l-0.112-0.363-0.001 0.001v0.362h-0.085v-0.423h0.149l0.088 0.308h0.001l0.096-0.308h0.144v0.423h-0.085v-0.362l-0.001-0.001-0.118 0.363z"></path>
</symbol>
</defs>
</svg>
