<svg aria-hidden="true" style="position: absolute; width: 0; height: 0; overflow: hidden;" version="1.1" xmlns="http://www.w3.org/2000/svg" xmlns:xlink="http://www.w3.org/1999/xlink">
<defs>
<symbol id="icon-android" viewBox="0 0 32 32">
<path d="M4.442 10.365c-0.551 0-1.019 0.192-1.404 0.577s-0.577 0.846-0.577 1.385v8.269c0 0.552 0.192 1.019 0.577 1.404s0.852 0.577 1.404 0.577c0.551 0 1.016-0.192 1.394-0.577s0.567-0.852 0.567-1.404v-8.269c0-0.539-0.192-1-0.577-1.385s-0.846-0.577-1.385-0.577z"></path>
<path d="M20.366 2.942l1.365-2.519c0.090-0.167 0.058-0.295-0.096-0.385-0.167-0.078-0.295-0.038-0.384 0.115l-1.384 2.539c-1.218-0.539-2.507-0.808-3.866-0.808s-2.648 0.27-3.866 0.808l-1.385-2.539c-0.090-0.153-0.218-0.192-0.384-0.115-0.154 0.090-0.186 0.218-0.096 0.385l1.366 2.519c-1.385 0.706-2.487 1.689-3.308 2.952s-1.231 2.644-1.231 4.144h17.788c0-1.5-0.41-2.881-1.231-4.144s-1.917-2.246-3.288-2.952zM12.471 6.606c-0.148 0.148-0.324 0.222-0.529 0.222s-0.378-0.074-0.519-0.222c-0.141-0.147-0.211-0.323-0.211-0.529s0.070-0.381 0.211-0.529c0.141-0.147 0.314-0.221 0.519-0.221s0.381 0.074 0.529 0.221c0.147 0.148 0.221 0.324 0.221 0.529s-0.074 0.381-0.221 0.529zM20.577 6.606c-0.141 0.148-0.314 0.222-0.519 0.222s-0.382-0.074-0.529-0.222c-0.148-0.147-0.221-0.323-0.221-0.529s0.074-0.381 0.221-0.529c0.147-0.147 0.324-0.221 0.529-0.221s0.378 0.074 0.519 0.221c0.141 0.148 0.212 0.324 0.212 0.529s-0.070 0.381-0.212 0.529z"></path>
<path d="M7.174 23.538c0 0.59 0.205 1.090 0.615 1.5s0.91 0.615 1.5 0.615h1.423l0.020 4.366c0 0.551 0.192 1.019 0.577 1.404s0.846 0.577 1.385 0.577c0.551 0 1.019-0.192 1.404-0.577s0.577-0.853 0.577-1.404v-4.366h2.654v4.366c0 0.551 0.192 1.019 0.577 1.404s0.852 0.577 1.404 0.577c0.551 0 1.019-0.192 1.404-0.577s0.577-0.853 0.577-1.404v-4.366h1.442c0.577 0 1.070-0.205 1.481-0.615s0.615-0.91 0.615-1.5v-12.808h-17.653v12.808z"></path>
<path d="M27.558 10.365c-0.539 0-1 0.19-1.385 0.567s-0.577 0.844-0.577 1.394v8.269c0 0.552 0.192 1.019 0.577 1.404s0.846 0.577 1.385 0.577c0.551 0 1.019-0.192 1.404-0.577s0.577-0.852 0.577-1.404v-8.269c0-0.551-0.192-1.016-0.577-1.394s-0.853-0.567-1.404-0.567z"></path>
</symbol>
<symbol id="icon-apple" viewBox="0 0 32 32">
<path d="M24.768 17.938c-0.88-4.43 3.325-7.028 3.325-7.028s-1.638-2.37-4.392-2.98c-2.752-0.611-4.129 0.152-5.504 0.725-1.376 0.574-2.063 0.574-2.063 0.574-1.986 0-3.437-2.102-7.22-1.145-2.606 0.658-5.35 3.666-5.846 7.258-0.496 3.592 0.574 8.176 2.637 11.729 2.063 3.555 4.164 4.892 5.655 4.93 1.491 0.037 2.98-1.068 4.775-1.337 1.796-0.266 2.902 0.651 4.663 1.147 1.755 0.494 2.37 0.036 4.392-1.684 2.027-1.719 3.861-6.651 3.861-6.651s-3.403-1.104-4.283-5.537z"></path>
<path d="M20.871 5.063c1.95-1.987 1.29-5.063 1.29-5.063s-2.738 0.481-4.573 2.389c-1.833 1.91-1.53 4.927-1.53 4.927s2.863-0.268 4.813-2.253z"></path>
</symbol>
<symbol id="icon-facebook" viewBox="0 0 32 32">
<path d="M15.949 0.485c2.885 0.033 5.491 0.742 7.818 2.127 2.3 1.357 4.212 3.282 5.556 5.59 1.377 2.341 2.081 4.963 2.114 7.865-0.082 3.971-1.334 7.362-3.757 10.175s-5.527 4.552-8.739 5.219v-11.133h3.037l0.687-4.375h-4.599v-2.866c-0.026-0.594 0.162-1.178 0.53-1.645 0.368-0.469 1.015-0.715 1.943-0.739h2.777v-3.832c-0.040-0.013-0.418-0.064-1.134-0.152-0.812-0.095-1.63-0.146-2.447-0.152-1.851 0.009-3.316 0.531-4.393 1.567s-1.627 2.534-1.651 4.495v3.325h-3.5v4.375h3.5v11.133c-3.945-0.667-7.048-2.407-9.471-5.219s-3.675-6.204-3.757-10.175c0.033-2.902 0.737-5.524 2.114-7.865 1.343-2.308 3.256-4.232 5.556-5.59 2.327-1.385 4.933-2.094 7.818-2.127z"></path>
</symbol>
<symbol id="icon-heart" viewBox="0 0 32 32">
<path stroke-linejoin="round" stroke-linecap="round" stroke-miterlimit="4" stroke-width="2.6667" d="M27.787 5.48c-0.681-0.681-1.49-1.222-2.379-1.591s-1.844-0.559-2.807-0.559-1.917 0.19-2.807 0.559c-0.89 0.369-1.699 0.909-2.38 1.591l-1.413 1.413-1.413-1.413c-1.376-1.376-3.241-2.148-5.187-2.148s-3.811 0.773-5.187 2.148c-1.376 1.376-2.148 3.241-2.148 5.187s0.773 3.811 2.148 5.187l11.787 11.787 11.787-11.787c0.681-0.681 1.222-1.49 1.591-2.38s0.559-1.844 0.559-2.807-0.19-1.917-0.559-2.807c-0.369-0.89-0.909-1.699-1.591-2.38v0z"></path>
</symbol>
<symbol id="icon-instagram" viewBox="0 0 32 32">
<path d="M16 12.501c2.164 0 3.918 1.727 3.918 3.857s-1.754 3.857-3.918 3.857-3.918-1.727-3.918-3.857c0-2.13 1.754-3.857 3.918-3.857zM16 10.958c-3.029 0-5.485 2.417-5.485 5.4s2.456 5.399 5.485 5.399 5.485-2.418 5.485-5.399c0-2.982-2.456-5.399-5.485-5.399zM21.654 9.66c-0.304 0.005-0.6 0.099-0.851 0.272s-0.445 0.415-0.558 0.697c-0.113 0.282-0.14 0.592-0.078 0.889s0.211 0.57 0.428 0.784c0.217 0.213 0.492 0.358 0.79 0.415s0.608 0.026 0.888-0.092c0.28-0.117 0.52-0.315 0.689-0.569s0.258-0.551 0.258-0.855c-0.003-0.412-0.17-0.807-0.464-1.096s-0.691-0.45-1.103-0.447zM12.172 7.981h7.657c2.491 0 4.51 1.988 4.51 4.44v7.873c0 2.452-2.019 4.44-4.51 4.44h-7.657c-2.491 0-4.51-1.988-4.51-4.44v-7.873c0-2.452 2.019-4.44 4.51-4.44zM11.449 6.446c-2.961 0-5.361 2.363-5.361 5.278v9.268c0 2.915 2.4 5.278 5.361 5.278h9.102c2.961 0 5.361-2.363 5.361-5.278v-9.268c0-2.915-2.4-5.278-5.361-5.278h-9.102zM16 0.87c8.553 0 15.488 6.934 15.488 15.488s-6.934 15.487-15.488 15.487c-8.554 0-15.488-6.934-15.488-15.487s6.934-15.488 15.488-15.488z"></path>
</symbol>
<symbol id="icon-next" viewBox="0 0 32 32">
<path stroke-linejoin="round" stroke-linecap="round" stroke-miterlimit="4" stroke-width="2.6667" d="M12 8l8 8-8 8"></path>
</symbol>
<symbol id="icon-prev" viewBox="0 0 32 32">
<path stroke-linejoin="round" stroke-linecap="round" stroke-miterlimit="4" stroke-width="2.6667" d="M20 24l-8-8 8-8"></path>
</symbol>
<symbol id="icon-tiktok" viewBox="0 0 32 32">
<path d="M16 0c-3.165 0-6.258 0.938-8.889 2.696s-4.682 4.257-5.893 7.181c-1.211 2.924-1.528 6.141-0.91 9.244s2.141 5.955 4.379 8.192c2.238 2.238 5.089 3.761 8.192 4.379s6.321 0.3 9.244-0.91c2.924-1.211 5.422-3.262 7.181-5.893s2.696-5.725 2.696-8.889c0-4.244-1.686-8.313-4.686-11.314s-7.070-4.686-11.314-4.686v0zM23.213 14.217c-1.427 0.158-2.651-0.406-3.874-1.126 0 0.118 0.036 3.773-0.025 5.516-0.061 1.792-0.701 3.368-2.105 4.545-2.977 2.499-7.202 1.149-8.21-2.672-0.547-2.082-0.072-3.958 1.562-5.442 0.92-0.842 2.055-1.217 3.272-1.373 0.261-0.034 0.524-0.049 0.806-0.074v2.829c-0.358 0.088-0.72 0.166-1.076 0.271-0.247 0.071-0.488 0.162-0.72 0.272-0.324 0.146-0.611 0.364-0.837 0.639s-0.386 0.597-0.468 0.943c-0.081 0.346-0.082 0.706-0.002 1.053s0.239 0.67 0.464 0.945c0.271 0.374 0.639 0.667 1.065 0.847s0.893 0.239 1.35 0.172c0.92-0.112 1.497-0.691 1.838-1.522 0.236-0.658 0.338-1.357 0.301-2.055-0.013-3.436-0.013-6.87-0.019-10.305 0.003-0.035 0.008-0.070 0.015-0.105h2.747c0.307 2.299 1.474 3.756 3.916 3.962v2.68z"></path>
</symbol>
<symbol id="icon-twitter" viewBox="0 0 32 32">
<path d="M16 0c-8.835 0-16 7.165-16 16s7.165 16 16 16c8.835 0 16-7.165 16-16s-7.165-16-16-16zM23.305 12.475c0.007 0.158 0.011 0.316 0.011 0.475 0 4.853-3.694 10.449-10.449 10.449-2.074 0-4.004-0.608-5.629-1.65 0.287 0.034 0.58 0.051 0.876 0.051 1.721 0 3.304-0.587 4.561-1.572-1.608-0.030-2.963-1.092-3.431-2.551 0.224 0.043 0.454 0.066 0.69 0.066 0.335 0 0.66-0.045 0.968-0.129-1.68-0.336-2.946-1.822-2.946-3.6 0-0.017 0-0.031 0-0.047 0.495 0.275 1.061 0.441 1.663 0.459-0.986-0.658-1.634-1.783-1.634-3.057 0-0.673 0.182-1.303 0.497-1.846 1.811 2.222 4.518 3.684 7.57 3.837-0.063-0.269-0.095-0.549-0.095-0.837 0-2.027 1.645-3.672 3.673-3.672 1.056 0 2.011 0.447 2.681 1.16 0.837-0.165 1.622-0.471 2.332-0.891-0.275 0.857-0.857 1.576-1.615 2.031 0.743-0.089 1.451-0.286 2.109-0.578-0.491 0.737-1.115 1.384-1.832 1.902z"></path>
</symbol>
</defs>
</svg>
